<?xml version="1.0" encoding="UTF-8"?><svg id="logoSVG" xmlns="http://www.w3.org/2000/svg" viewBox="0 0 927.06 927.06"><defs><style>.cls-1{font-family:CaviarDreams-Bold, 'Caviar Dreams';font-size:90.71px;}.cls-2{stroke-linecap:round;}.cls-2,.cls-3{fill:#ffbc42;}.cls-2,.cls-3,.cls-4,.cls-5,.cls-6{stroke:#8f2d56;stroke-linejoin:round;stroke-width:5px;}.cls-7,.cls-5,.cls-8{fill:#ef9639;}.cls-9,.cls-10{fill:#8f2d56;}.cls-11{fill:#212021;}.cls-4,.cls-6{fill:#d81159;}.cls-5,.cls-6,.cls-10,.cls-8,.cls-12{fill-rule:evenodd;}.cls-12{fill:#fff;}</style></defs><g id="Layer_1-2"><g><g><path class="cls-12" d="M463.53,922.06c-61.9,0-121.95-12.12-178.48-36.04-54.6-23.09-103.64-56.16-145.75-98.26-42.11-42.11-75.17-91.15-98.27-145.75-23.91-56.53-36.04-116.58-36.04-178.48s12.12-121.95,36.04-178.48c23.09-54.6,56.16-103.64,98.26-145.75s91.15-75.17,145.75-98.27C341.58,17.12,401.63,5,463.53,5s121.95,12.12,178.48,36.04c54.6,23.09,103.64,56.16,145.75,98.26,42.11,42.11,75.17,91.15,98.26,145.75,23.91,56.53,36.04,116.58,36.04,178.48s-12.12,121.95-36.04,178.48c-23.09,54.6-56.16,103.64-98.26,145.75-42.11,42.11-91.15,75.17-145.75,98.26-56.53,23.91-116.58,36.04-178.48,36.04Z"/><path d="M463.53,10c250.48,0,453.53,203.05,453.53,453.53h0c0,250.48-203.05,453.53-453.53,453.53h0c-250.48,0-453.53-203.05-453.53-453.53h0C10,213.05,213.05,10,463.53,10h0m0-10c-62.57,0-123.28,12.26-180.43,36.43-55.2,23.35-104.77,56.77-147.34,99.33-42.57,42.57-75.99,92.14-99.33,147.34C12.26,340.25,0,400.96,0,463.53s12.26,123.28,36.43,180.43c23.35,55.2,56.77,104.77,99.33,147.34,42.57,42.57,92.14,75.99,147.34,99.33,57.15,24.17,117.86,36.43,180.43,36.43s123.28-12.26,180.43-36.43c55.2-23.35,104.77-56.77,147.34-99.33,42.57-42.57,75.99-92.14,99.33-147.34,24.17-57.15,36.43-117.86,36.43-180.43s-12.26-123.28-36.43-180.43c-23.35-55.2-56.77-104.77-99.33-147.34-42.57-42.57-92.14-75.99-147.34-99.33C586.81,12.26,526.1,0,463.53,0h0Z"/></g><g><path class="cls-3" d="M815.76,463.53c0,4.67-.1,9.31-.29,13.93-.2,5.02-7.83,5.09-7.91,.07,0-.04,0-.08,0-.12v-56.73c0-4.88-3.56-9.24-8.41-9.71-5.57-.54-10.28,3.84-10.28,9.3v2.93c0,3.92-2.84,7.44-6.74,7.84-4.48,.46-8.32-3.07-8.32-7.49v-53.61c0-4.88-3.56-9.24-8.41-9.71-5.57-.54-10.28,3.84-10.28,9.3v104.27c0,3.93-2.87,7.44-6.78,7.82-4.49,.43-8.27-3.09-8.27-7.49v-53.56c0-4.7-3.35-8.9-8-9.55-5.75-.8-10.68,3.66-10.68,9.25,0,2.7-1.25,5.31-3.65,6.54-5.71,2.93-11.41-1.15-11.41-6.55v-19.12c0-4.88-3.56-9.24-8.41-9.71-5.57-.54-10.28,3.84-10.28,9.3v47.78c0,3.93-2.87,7.44-6.78,7.82-4.49,.43-8.27-3.09-8.27-7.49v-11.5c0-4.88-3.56-9.24-8.41-9.71-5.57-.54-10.28,3.84-10.28,9.3v11.59c0,3.93-2.87,7.44-6.78,7.82-4.49,.43-8.28-3.09-8.28-7.49v-47.7c0-4.88-3.56-9.24-8.41-9.71-5.57-.54-10.28,3.84-10.28,9.3v76.35c0,3.93-2.87,7.44-6.78,7.82-4.49,.43-8.27-3.09-8.27-7.49v-56.73c0-4.88-3.56-9.24-8.41-9.71-5.57-.54-10.28,3.84-10.28,9.3v57.14c0,4.42-3.83,7.95-8.32,7.49-3.9-.4-6.74-3.92-6.74-7.84v-75.92c0-4.88-3.56-9.24-8.41-9.71-5.57-.54-10.28,3.84-10.28,9.3v48.11c0,4.42-3.83,7.95-8.32,7.49-3.9-.4-6.74-3.92-6.74-7.84v-11.15c0-4.88-3.56-9.24-8.41-9.71-5.57-.54-10.28,3.84-10.28,9.3v11.92c0,4.42-3.84,7.95-8.33,7.49-3.91-.41-6.75-3.93-6.75-7.86v-22.23l209.62-209.62c63.19,63.2,102.28,150.52,102.28,246.92Z"/><path class="cls-3" d="M503.86,426.23v-25.51c0-5.15-4.19-9.34-9.34-9.34s-9.34,4.19-9.34,9.34v19.54c0,4.15-3.37,7.53-7.53,7.53s-7.53-3.37-7.53-7.53c0-2.98-1.4-5.64-3.57-7.33V114.31c96.46,0,183.75,39.09,246.94,102.3l-209.62,209.62Z"/><path class="cls-3" d="M417.69,414.68v8.87c0,4.15-3.37,7.53-7.53,7.53s-7.53-3.37-7.53-7.53v-3.28c0-5.15-4.19-9.34-9.34-9.34s-9.34,4.19-9.34,9.34v57.14c0,4.15-3.37,7.53-7.53,7.53s-7.53-3.37-7.53-7.53v-76.68c0-5.15-4.19-9.34-9.34-9.34s-9.34,4.19-9.34,9.34v48.11c0,4.15-3.37,7.53-7.53,7.53s-7.53-3.37-7.53-7.53v-11.92c0-5.15-4.19-9.34-9.34-9.34s-9.34,4.19-9.34,9.34v11.92c0,4.15-3.37,7.53-7.53,7.53s-7.53-3.37-7.53-7.53v-48.11c0-5.15-4.19-9.34-9.34-9.34s-9.34,4.19-9.34,9.34v76.68c0,4.15-3.37,7.53-7.53,7.53s-7.53-3.37-7.53-7.53v-57.14c0-5.15-4.19-9.34-9.34-9.34s-9.34,4.19-9.34,9.34v3.28c0,4.15-3.39,7.53-7.53,7.53s-7.53-3.37-7.53-7.53v-54.02c0-5.15-4.19-9.34-9.34-9.34s-9.34,4.19-9.34,9.34v104.6c0,4.15-3.39,7.53-7.53,7.53s-7.53-3.37-7.53-7.53v-53.86c0-5.15-4.21-9.34-9.36-9.34s-9.34,4.19-9.34,9.34c0,4.15-3.37,7.53-7.53,7.53s-7.53-3.37-7.53-7.53v-19.54c0-5.15-4.19-9.34-9.34-9.34s-9.34,4.19-9.34,9.34v48.11c0,4.15-3.37,7.53-7.53,7.53s-7.53-3.37-7.53-7.53v-11.92c0-5.15-4.19-9.34-9.34-9.34-1.54,0-2.98,.42-4.26,1.09,8.18-82.52,45.06-156.58,100.56-212.05l198.07,198.07Z"/><path class="cls-3" d="M466.54,114.31V412.93c-1.6-1.27-3.59-2.01-5.77-2.01-5.15,0-9.34,4.19-9.34,9.34v53.86c0,4.15-3.37,7.53-7.53,7.53s-7.53-3.37-7.53-7.53v-104.6c0-5.15-4.19-9.34-9.34-9.34s-9.34,4.19-9.34,9.34v45.15L219.62,216.61c63.19-63.2,150.48-102.3,246.92-102.3Z"/><circle class="cls-4" cx="333.01" cy="256.39" r="31.68"/><circle class="cls-4" cx="425.02" cy="163.33" r="31.68"/><path class="cls-10" d="M425.02,152.26c11.82,0,21.79,7.84,25.02,18.61,.72-2.39,1.11-4.91,1.11-7.53,0-14.44-11.7-26.14-26.14-26.14s-26.14,11.7-26.14,26.14c0,2.62,.4,5.15,1.11,7.53,3.23-10.76,13.21-18.61,25.02-18.61Z"/><circle class="cls-4" cx="553.56" cy="183.93" r="31.68"/><circle class="cls-4" cx="574.66" cy="271.05" r="31.68"/><circle class="cls-4" cx="659.81" cy="361.26" r="31.68"/><path class="cls-10" d="M665.41,382.82c-15,0-27.16-12.16-27.16-27.16,0-6.04,2-11.6,5.33-16.11-6.69,4.95-11.05,12.87-11.05,21.83,0,15,12.16,27.16,27.16,27.16,8.96,0,16.88-4.36,21.83-11.05-4.51,3.34-10.07,5.33-16.11,5.33Z"/><circle class="cls-4" cx="203.19" cy="313.9" r="31.68"/><path class="cls-6" d="M406.44,377.49c0,7.29-2.47,13.99-6.6,19.34l-44.43-44.43c5.35-4.14,12.06-6.59,19.36-6.59,17.49,0,31.67,14.17,31.67,31.67Z"/><path class="cls-6" d="M399.84,396.83c-5.79,7.51-14.88,12.34-25.07,12.34-2.01,0-3.97-.18-5.88-.56v-7.87c0-5.15-4.19-9.34-9.34-9.34-4.19,0-7.75,2.78-8.93,6.59-4.7-5.51-7.53-12.66-7.53-20.48,0-10.21,4.83-19.28,12.32-25.09l44.43,44.43Z"/><path class="cls-6" d="M795.01,371.32c0,13.82-8.85,25.56-21.19,29.88v-31.67c0-5.15-4.19-9.34-9.34-9.34s-9.34,4.19-9.34,9.34v32.4c-13.52-3.61-23.47-15.95-23.47-30.6,0-17.49,14.17-31.67,31.67-31.67s31.67,14.19,31.67,31.67Z"/><circle class="cls-7" cx="217.31" cy="247.32" r="9.07"/><circle class="cls-7" cx="210.99" cy="259.58" r="2.7"/><circle class="cls-7" cx="229.08" cy="254.43" r="2.7"/><circle class="cls-7" cx="326.75" cy="348.45" r="7.84"/><circle class="cls-7" cx="259.19" cy="340.61" r="7.84"/><circle class="cls-7" cx="316.06" cy="354.34" r="1.95"/><circle class="cls-7" cx="327.68" cy="359.42" r="1.84"/><circle class="cls-7" cx="325.5" cy="337.35" r="1.25"/><path class="cls-9" d="M184.93,320.61c0-13.79,11.18-24.97,24.97-24.97,5.18,0,9.99,1.58,13.98,4.28-4.49-6.63-12.08-10.99-20.69-10.99-13.79,0-24.97,11.18-24.97,24.97,0,8.61,4.36,16.2,10.99,20.69-2.7-3.99-4.28-8.8-4.28-13.98Z"/><path class="cls-9" d="M219.85,308.99c-2.07,0-3.85,1.13-4.82,2.8,.09,0,.17-.03,.26-.03,3.09,0,5.6,2.51,5.6,5.6,0,1.02-.29,1.97-.77,2.79,2.97-.14,5.33-2.57,5.33-5.57s-2.51-5.6-5.6-5.6Z"/><circle class="cls-9" cx="199.88" cy="335.09" r="2.21"/><circle class="cls-9" cx="203.18" cy="331.78" r="1.21"/><circle class="cls-9" cx="197.67" cy="330.57" r=".43"/><path class="cls-5" d="M220.06,217.05c-58.27,58.45-95.93,137.44-101.23,225.15-.71,11.97-10.61,21.33-22.6,21.33h-1.72c-13.04,0-23.42-10.99-22.64-24,5.95-99.63,48.8-189.32,115.09-255.59l33.11,33.11Z"/><path class="cls-5" d="M466.54,68.12v46.19c-96.31,.24-183.44,39.46-246.48,102.73l-33.11-33.11c71.55-71.57,170.4-115.81,279.59-115.81Z"/><path class="cls-5" d="M746.13,183.94l-32.22,32.24h-.02c-63.17-62.95-150.3-101.86-246.48-101.86h-.87v-46.19c109.17,0,208.03,44.25,279.59,115.81Z"/><path class="cls-5" d="M838.6,463.53c-11.99,0-21.9-9.36-22.6-21.33-5.32-88.13-43.34-167.48-102.08-226.02l32.22-32.24h.02c66.27,66.27,109.12,155.96,115.09,255.57,.78,13.03-9.6,24.02-22.64,24.02Z"/><line class="cls-2" x1="248.97" y1="420.26" x2="248.97" y2="399.98"/><line class="cls-2" x1="267.66" y1="420.26" x2="267.66" y2="406.43"/><line class="cls-2" x1="181.47" y1="420.26" x2="181.47" y2="399.98"/><circle class="cls-7" cx="164.53" cy="369.33" r="8.07"/><circle class="cls-7" cx="178.64" cy="362.25" r="2.83"/><circle class="cls-7" cx="264.28" cy="323.67" r="3.52"/><circle class="cls-7" cx="250.16" cy="349.63" r="1.18"/><circle class="cls-7" cx="273.49" cy="200.45" r="9.22"/><circle class="cls-7" cx="285.19" cy="195.63" r="2.48"/><circle class="cls-7" cx="275.26" cy="216.48" r="3.36"/><circle class="cls-7" cx="521.88" cy="365.08" r="3.36"/><circle class="cls-7" cx="374.82" cy="163.33" r="3.36"/><circle class="cls-7" cx="415.24" cy="259.12" r="7.39"/><circle class="cls-7" cx="403.14" cy="262.88" r="3.3"/><circle class="cls-7" cx="532.85" cy="365.08" r="3.3"/><circle class="cls-7" cx="415.15" cy="273.8" r="4.61"/><circle class="cls-7" cx="421.19" cy="248.76" r="1.43"/><circle class="cls-7" cx="363.81" cy="158.95" r="1.43"/><path class="cls-9" d="M333.01,239.05c11.83,0,21.57,8.85,23.02,20.28,.12-.97,.21-1.94,.21-2.94,0-12.83-10.4-23.22-23.22-23.22s-23.22,10.4-23.22,23.22c0,1,.08,1.98,.21,2.94,1.45-11.43,11.19-20.28,23.02-20.28Z"/><path class="cls-6" d="M498.67,329.59c0,17.49-14.19,31.67-31.69,31.67-.15,0-.29,0-.44-.02v-63.33c.15-.02,.29-.02,.44-.02,17.51,0,31.69,14.19,31.69,31.69Z"/><path class="cls-6" d="M466.54,297.92v63.33c-17.29-.22-31.24-14.31-31.24-31.66s13.95-31.46,31.24-31.67Z"/><circle class="cls-7" cx="371.46" cy="146.62" r="7.65"/><circle class="cls-7" cx="527.37" cy="353.93" r="5.48"/><path class="cls-10" d="M378.32,349.15c-5.43-.65-10.6,.24-15.13,2.29-1.19,.54-.57,2.3,.69,1.95,3.28-.9,6.79-1.23,10.43-.86,13.2,1.33,23.9,12.03,25.23,25.24,.37,3.64,.04,7.15-.86,10.43-.35,1.26,1.42,1.88,1.95,.69,2.05-4.53,2.94-9.7,2.29-15.13-1.53-12.77-11.84-23.08-24.61-24.61Z"/><circle class="cls-7" cx="740.17" cy="279.56" r="8.51"/><circle class="cls-7" cx="726.15" cy="285" r="1.89"/><circle class="cls-7" cx="743.14" cy="296.59" r="4.49"/><circle class="cls-7" cx="590.95" cy="365.13" r="5.71"/><circle class="cls-7" cx="579.17" cy="368.87" r="1.98"/><circle class="cls-7" cx="588.09" cy="376.58" r="2.86"/><circle class="cls-7" cx="593.42" cy="354.59" r="2.47"/><circle class="cls-7" cx="679.4" cy="309.28" r="6.55"/><circle class="cls-7" cx="664.33" cy="310.83" r="1.55"/><circle class="cls-9" cx="780.7" cy="362.27" r="2.86"/><circle class="cls-7" cx="489.26" cy="150.96" r="6.65"/><path class="cls-8" d="M506.76,248.23c-3.45,0-6.38-2.17-7.54-5.21-.34,.9-.55,1.86-.55,2.88,0,4.47,3.62,8.09,8.09,8.09s8.09-3.62,8.09-8.09c0-1.02-.21-1.98-.55-2.88-1.16,3.04-4.09,5.21-7.54,5.21Z"/><circle class="cls-7" cx="516.98" cy="258.52" r="2.13"/><circle class="cls-7" cx="624.78" cy="182.9" r="3.35"/><circle class="cls-7" cx="616.64" cy="185.99" r="2.05"/><circle class="cls-7" cx="627.48" cy="192.31" r="2.69"/><path class="cls-6" d="M702.12,227.97l-42.4,42.4c-2.09-4.21-3.25-8.96-3.25-13.97,0-17.49,14.19-31.67,31.67-31.67,5.01,0,9.76,1.16,13.97,3.25Z"/><path class="cls-6" d="M719.83,256.39c0,17.49-14.19,31.67-31.67,31.67-12.48,0-23.28-7.22-28.43-17.71l42.4-42.4c10.49,5.15,17.71,15.95,17.71,28.43Z"/><circle class="cls-9" cx="707.74" cy="243.35" r="3.97"/><circle class="cls-9" cx="707.74" cy="253.98" r="2.41"/><circle class="cls-9" cx="701.36" cy="249.16" r="1.7"/><circle class="cls-9" cx="328.3" cy="278.8" r="2.8"/><circle class="cls-9" cx="334.21" cy="277.2" r="1.21"/><circle class="cls-9" cx="356.92" cy="376.58" r="2.86"/><circle class="cls-9" cx="363.62" cy="374.79" r="1.06"/><circle class="cls-9" cx="450.74" cy="316.89" r="3.26"/><circle class="cls-9" cx="445.01" cy="322.23" r="2.08"/><circle class="cls-9" cx="480.69" cy="343.93" r="3.32"/><circle class="cls-9" cx="484.35" cy="337.85" r="1.75"/><circle class="cls-9" cx="419.76" cy="183.94" r="3.36"/><circle class="cls-9" cx="426.7" cy="182.26" r="1.68"/><path class="cls-10" d="M537.66,190.31c0-2.07,1.19-3.84,2.92-4.72-.73-.37-1.54-.6-2.41-.6-2.94,0-5.32,2.38-5.32,5.32s2.38,5.32,5.32,5.32c.87,0,1.68-.23,2.41-.6-1.72-.88-2.92-2.65-2.92-4.72Z"/><circle class="cls-9" cx="532.02" cy="178.11" r="2.47"/><circle class="cls-9" cx="529.05" cy="185.61" r="1.68"/><circle class="cls-9" cx="575.76" cy="270.15" r="3.65"/><circle class="cls-9" cx="570.51" cy="264.48" r="1.6"/><circle class="cls-9" cx="583.43" cy="268.78" r="2.27"/><circle class="cls-9" cx="674.07" cy="275.73" r="3.47"/><circle class="cls-9" cx="671.39" cy="269.57" r=".79"/><circle class="cls-9" cx="662.77" cy="339.14" r="3.04"/><circle class="cls-9" cx="654.51" cy="337.62" r="1.52"/><circle class="cls-9" cx="657.69" cy="345.59" r="1.66"/><circle class="cls-9" cx="748.67" cy="353.93" r="3.48"/><circle class="cls-9" cx="746.62" cy="360.85" r="1.43"/><text class="cls-1" transform="translate(62.46 624.46) rotate(64.73)"><tspan x="0" y="0">P</tspan></text><text class="cls-1" transform="translate(85.69 672) rotate(59.47)"><tspan x="0" y="0">i</tspan></text><text class="cls-1" transform="translate(99.49 696.24) rotate(54.06)"><tspan x="0" y="0">z</tspan></text><text class="cls-1" transform="translate(132.12 740.67) rotate(46.78)"><tspan x="0" y="0">z</tspan></text><text class="cls-1" transform="translate(170.32 781.33) rotate(38.62)"><tspan x="0" y="0">a</tspan></text><text class="cls-1" transform="translate(223.41 822.19) rotate(31.77)"><tspan x="0" y="0"> </tspan></text><text class="cls-1" transform="translate(253.31 842.06) rotate(24.13)"><tspan x="0" y="0">W</tspan></text><text class="cls-1" transform="translate(326.55 872.79) rotate(16.89)"><tspan x="0" y="0">i</tspan></text><text class="cls-1" transform="translate(353.18 881.34) rotate(11.39)"><tspan x="0" y="0">n</tspan></text><text class="cls-1" transform="translate(408.57 892.47) rotate(3.13)"><tspan x="0" y="0">g</tspan></text><text class="cls-1" transform="translate(476.04 895.08) rotate(-4.19)"><tspan x="0" y="0">s</tspan></text><text class="cls-1" transform="translate(518.67 891.62) rotate(-9.35)"><tspan x="0" y="0"> </tspan></text><text class="cls-1" transform="translate(554.54 886.25) rotate(-16.06)"><tspan x="0" y="0">&amp;</tspan></text><text class="cls-1" transform="translate(615.89 867.44) rotate(-22.77)"><tspan x="0" y="0"> </tspan></text><text class="cls-1" transform="translate(647.64 854.36) rotate(-28.37)"><tspan x="0" y="0">T</tspan></text><text class="cls-1" transform="translate(693.14 829.54) rotate(-35.46)"><tspan x="0" y="0">h</tspan></text><text class="cls-1" transform="translate(738.59 797.18) rotate(-43.63)"><tspan x="0" y="0">a</tspan></text><text class="cls-1" transform="translate(787.25 749.64) rotate(-51.84)"><tspan x="0" y="0">n</tspan></text><text class="cls-1" transform="translate(822.15 705.22) rotate(-60.1)"><tspan x="0" y="0">g</tspan></text><text class="cls-1" transform="translate(854.89 646.07) rotate(-67.56)"><tspan x="0" y="0">s</tspan></text><path class="cls-11" d="M790.86,496.68c-1.49,3.07-1.04,15.68-1.08,19.13h-16.87v-65.01c-4.2-.32-12.66-.43-16.87-.24l-.28,77.98h-16.87c.04-5.76,.42-29.36,.08-34.62l-7.39-.99-8.89,.99v17.6h-17.27v-29.75l-6.48-.71-10.39,.71v39.62h-16.87v-17.8l-8.97-.92-7.9,.54v37.83h-16.87v-59.27c-4.2-.42-12.66-.37-16.87,0l-.28,49.69h-16.87l.28-29.75-6.94-1.36-9.93,.98-.28,20.04-16.87-.26,.28-27.33-7.23-1.88-9.64,1.48v46h-16.89v-9.75h0c0-5.39,0-16.27,0-21.63-3.9,8.03-10.28,14.73-16.87,20.6v11.11l-12.19,.5v-2.77c-15.73,9.58-36.17,14.07-55.29,11.41v16.3h-16.87v-20.27c-22.39-7.71-40.58-24.42-50.31-45.79-.62-.3-.43,31.54-.59,32.3h-16.87l.28-58.73-16.87-.44v48.9h-16.87l.2-9.22-17.01-3.53-.07,19.11h-16.87v-45.7l-16.87,3.17-.28,47.05h-16.87l.28-40.83-16.87,1.31v24.35h-16.87v-32.14l-9.13-1.28-7.76,1.54-.28,44.67h-16.87l.28-42.29-16.87,2.75v10.85h-16.87v-30.44l-16.87-6.95v48.69h-16.87v-11.3l-11.02,6.29c53.88,410.54,660.36,401.99,685.91-11.09l-15.8,.55Zm-324.32,176.35c55.58,.27,109.45-21.53,151.1-58.4-75.06,89.22-227.11,89.17-302.18,0,41.63,36.9,95.51,58.69,151.08,58.4Zm0,54.42c69.84,.33,137.84-27.36,189.56-74.36-95.26,110.34-283.83,110.27-379.1,0,51.68,47.04,119.71,74.71,189.54,74.36Zm62.01,48.07c-101.63,21.7-214.12-12.88-283.89-90.09,120.49,115.41,323.29,115.58,443.5-.29-41.58,45.82-98.74,77.93-159.61,90.38Z"/></g></g></g></svg>
