<?xml version="1.0" encoding="UTF-8"?><svg id="Layer_2" xmlns="http://www.w3.org/2000/svg" viewBox="0 0 713.9 580.66"><defs><style>.cls-1{fill:#fff;}.cls-2{fill:#d81159;}</style></defs><g id="Layer_1-2"><g><g><path class="cls-1" d="M489.86,575.66c-14.43,0-26-5.06-35.29-9.13-2.69-1.18-5.2-2.28-7.16-2.96-.76-.26-1.51-.56-2.26-.88-39.89-17.1-77.59-25.77-112.06-25.77-17.82,0-34.86,2.38-50.65,7.07-.38,.11-.75,.22-1.13,.32-10.09,2.63-23.72,10.39-35.75,17.23-1.94,1.1-3.84,2.19-5.69,3.23-7.15,4.9-15.36,7.49-23.78,7.49-3.62,0-7.23-.49-10.77-1.45-3.33,.8-6.7,1.21-10.05,1.21-8.41,0-24.36-2.67-36.6-20.56-.96-1.4-1.82-2.88-2.56-4.4-5.23-10.7-5.85-22.71-1.73-33.04,.31-1.54,.69-3.1,1.14-4.63,2.19-9.1,7.57-16.15,11.5-21.29,3.69-4.83,8.95-11.3,16.09-19.77,8.38-9.95,18.59-21.77,29.56-34.39-2.95,.81-6.08,1.48-9.39,1.96-5.35,10.56-13.56,20.31-24.43,29.02l-.1,.08c-12.09,9.6-22.11,14.51-35.76,17.55-.46,.1-.92,.2-1.39,.28-.43,.08-.69,.14-1.13,.24-1.74,.41-5.33,1.25-9.89,1.25-3.29,0-6.57-.43-9.76-1.27-3.63,.74-7.03,1.1-10.35,1.1-2.83,0-5.63-.27-8.31-.81-13.98-2.11-22.38-11.66-25.55-15.26l-.2-.23c-7.76-7.54-11.63-18.44-10.37-29.2l6.92-58.68c-7.1-4.65-13.58-10.86-19.31-18.53-4.47-5.99-6.88-13.1-6.96-20.57-.26-24.02,13.27-40.7,24.37-51.51-3.38-28.56-11.83-55.91-18.43-74.03-.94-2.57-1.57-5.24-1.88-7.95-1.04-1.74-1.93-3.57-2.65-5.46-6.65-17.4-10.41-21.3-11.1-21.9-2.95-2.6-5.42-5.64-7.35-9.06h0c-2.47-1.65-4.63-3.39-6.58-5.29-4.25-4.16-7.38-9.01-9.32-14.42-.62-1.21-1.2-2.41-1.75-3.57,0,0-.46-.97-.57-1.18-2.69-4.47-4.37-9.57-4.86-14.76-.11-.61-.26-1.33-.36-1.85-.81-4.14-1.51-7.71-1.15-12.63,.19-2.54,.65-5.06,1.38-7.5,7.5-25.04,23.83-37.75,38.85-46.87,2.69-1.89,5.81-3.64,10.09-5.67,8.59-4.07,15.13-5.8,21.86-5.8,.95,0,1.92,.04,2.86,.11,3.11,.03,6.14,.31,9.01,.84,3.77-.85,6.64-.95,8.52-.95,.84,0,1.69,.03,2.52,.09h.15c10.61,0,17.52,2.87,22.38,5.44,6.49,2.36,12.08,6.54,16.19,12.11,13.8,18.7,15.57,20.24,36.27,30.81,32.2,10.56,69.39,17.01,105.35,23.24,25.49,4.42,51.83,8.99,76.87,15.06,5.97,1.05,11.68,2.98,16.97,5.73,2.84,.65,7,1.82,12.16,4.41,5.48,2.58,8.31,4.43,11.62,6.91,.65,.49,1.04,.78,2.14,1.49,4.7,3.03,8.64,6.43,11.71,10.11,1.41,1.5,2.57,2.92,3.55,4.16,4.51,4.24,7.82,9.61,9.58,15.55,5.2,17.56,4.97,34.82-.67,51.42,5.76,.46,11.35,2.36,16.21,5.49,1.66-.8,3.39-1.47,5.16-2,11.99-29.2,22.08-61.01,31.84-91.79l.38-1.18c1.62-11.52,2.24-29.84,2.74-44.6,.22-6.59,.43-12.81,.71-18.27,.29-5.58,1.93-11.05,4.75-15.87,.24-.67,.48-1.37,.66-1.87,.67-1.93,1.29-3.72,2.07-5.55,1.57-3.96,3.67-7.44,5.89-11.12,1.09-1.8,1.98-3.25,2.73-4.44,.84-1.71,1.83-3.43,2.93-5.1,1.9-2.87,3.91-5.5,5.98-7.83,6.12-10.07,14.58-14.71,19.16-17.22,0,0,.7-.38,.97-.54,11.67-7.65,22.65-11.07,35.58-11.07,2.44,0,4.97,.12,7.74,.38,.93,.08,1.86,.21,2.78,.37,3.18-.49,6.5-.74,9.89-.74,2.43,0,4.96,.12,7.72,.38,8.54,.78,16.48,4.66,22.35,10.91l2.22,2.37c6.13,6.53,9.49,15.06,9.47,24.02-.04,17.64-1.53,37.49-4,53.19-.63,19.2-.34,44.81,.11,61.18,6.25,33.16,15.35,64.78,26.34,91.62,2.78,1.39,5.35,3.14,7.67,5.22,9.65,7.18,13.31,15.86,14.68,21.9,1.4,6.16,1.1,12.59-.86,18.6,0,.01-1.36,5.67,6.8,20.91,8.46,15.2,12.87,31.92,17.14,48.09,3.37,12.75,6.84,25.91,11.46,33.45,3.59,5.85,5.36,12.57,5.14,19.43l-.41,12.61c-.22,6.85-2.41,13.41-6.35,19.01-.47,.98-1.04,2.24-1.41,3.04-1.43,3.13-2.66,5.82-4.36,8.5-1.59,2.52-3.5,4.83-5.68,6.87-4.48,4.2-11.44,10.72-15.95,14.96-4.36,4.09-9.72,7.01-15.52,8.45-3.75,1.48-8.82,3.12-15.21,3.12-1.26,0-2.52-.07-3.78-.2-.16,0-.38,0-.68,0-.45,0-1.58,0-1.58,0-.73,0-1.47,.01-2.21,.01-3.03,0-5.45-.09-7.74-.3-2.5,.33-5.14,.5-7.86,.5-3.22,0-6.06-.22-8.35-.4-.68-.05-1.83-.14-2.34-.16-.51,.02-1.02,.03-1.53,.03-12.46,0-19.53-5.44-30.23-13.67,0,0-1.65-1.27-2.02-1.55-.64-.44-1.26-.9-1.87-1.38,4.22,8.02,7.24,16.79,7.75,26.62,.31,5.94-.91,11.89-3.53,17.23-1.19,4.01-3.4,11.04-9.16,17.42-.6,.73-1.68,2.13-2.41,3.06-1.95,2.52-4.17,5.38-6.56,8.09-.4,.49-1.29,1.58-1.29,1.58-3.39,4.17-8.03,9.89-14.61,14.87-7.9,5.97-16.85,9.46-26.62,10.38-2.74,.32-5.97,.67-9.73,.67-2.97,0-5.91-.23-8.76-.69-2.97,.47-6.01,.71-9.06,.71Zm24.45-178.4c4.46,5.61,8.92,11.28,13.26,16.8,8.17,10.4,15.9,20.22,23.21,29.17,.29,.35,.58,.72,.85,1.09,1.42,1.89,3.02,3.93,4.72,6.08,1.8,2.29,3.63,4.62,5.45,7.01-.19-.69-.35-1.39-.5-2.1l-.05-.15c-1.55-4.46-3.68-10.58-3.18-18.28l.02-.76c-10.47-22.69-18.47-47.06-26.21-70.64,0,0-.47-1.42-.58-1.77-.19,.85-.43,1.92-.58,2.64-.47,6.07-2.52,12.03-6.08,17.74-2.35,5.2-5.88,9.69-10.34,13.17Z"/><path d="M562.21,10c2.29,0,4.67,.12,7.29,.35,1.07,.1,2.13,.25,3.18,.46,3.21-.55,6.51-.82,9.95-.82,2.28,0,4.66,.12,7.27,.35,7.31,.67,14.13,4,19.15,9.35l2.22,2.37c5.23,5.58,8.13,12.94,8.12,20.59-.04,17.42-1.56,37.39-3.99,52.73-.62,18.39-.41,43.79,.11,62.19,6.43,34.24,16.05,67.4,27.45,94.8,3.04,1.3,5.88,3.11,8.38,5.38,3.44,2.53,10.56,8.48,12.97,19.13,1.2,5.28,.94,10.79-.74,15.94-.39,1.19-1.87,7.99,7.15,24.82,8.19,14.73,12.53,31.14,16.72,47.02,3.46,13.08,7.03,26.61,12.03,34.77,3.06,5,4.6,10.79,4.41,16.65l-.41,12.61c-.19,6.03-2.2,11.81-5.67,16.61-.51,1.05-1.21,2.58-1.64,3.51-1.41,3.07-2.52,5.5-4.04,7.91-1.36,2.16-3,4.14-4.87,5.89-4.48,4.2-11.44,10.72-15.96,14.96-3.87,3.64-8.58,6.13-13.62,7.32-3.06,1.23-7.73,2.9-13.69,2.9-1.16,0-2.31-.06-3.46-.19-.17,0-.48,0-1,0s-1.07,0-1.61,0c-.72,0-1.45,.01-2.18,.01-2.54,0-5.17-.06-7.85-.33-2.47,.35-5.04,.53-7.75,.53-3.02,0-5.76-.21-7.96-.38-.94-.07-2.21-.17-2.76-.18-.5,.02-1,.04-1.5,.04-10.76,0-16.59-4.49-27.18-12.63-.86-.66-1.62-1.25-2.14-1.64-6.59-4.52-11-11.41-12.48-19.04-.05-.16-.11-.31-.16-.47-1.46-4.2-3.36-9.67-2.91-16.4l.07-2.04c-10.59-22.72-18.67-47.31-26.5-71.17-1.33-4.05-2.67-8.14-4.04-12.24l-2.43-.08c-.89,2.22-1.77,4.35-2.73,6.38-.3,1.52-.63,2.98-.95,4.37-.23,1.04-.57,2.52-.72,3.35-.5,7.3-3.51,12.86-5.54,16.04-2.42,5.51-6.49,10.29-11.83,13.55-.31,.25-.73,.62-1.2,1.07,5.48,6.86,11,13.88,16.45,20.81,8.2,10.43,15.95,20.28,23.27,29.24,.25,.31,.49,.62,.73,.93,1.46,1.93,3.07,3.99,4.79,6.17,10.85,13.81,23.15,29.46,24.17,49.1,.27,5.3-.86,10.51-3.21,15.13-1.2,4.06-3.14,10.34-8.27,15.99-.62,.75-1.74,2.19-2.58,3.27-1.93,2.49-4.11,5.3-6.42,7.91-.46,.56-.91,1.12-1.36,1.67-6.55,8.07-17.47,21.53-37.87,23.43-2.41,.29-5.6,.64-9.2,.64-3,0-5.92-.25-8.75-.75-2.97,.52-6,.78-9.06,.78-13.38,0-24.42-4.83-33.28-8.71-2.76-1.21-5.37-2.35-7.51-3.1-.65-.23-1.3-.48-1.93-.75-40.51-17.37-78.88-26.17-114.03-26.17-18.3,0-35.82,2.45-52.07,7.28-.32,.1-.64,.19-.97,.27-10.73,2.8-24.67,10.73-36.97,17.73-2,1.14-3.95,2.25-5.87,3.32-6.37,4.42-13.61,6.74-21.13,6.74-2.8,0-6.53-.34-10.7-1.63-3.06,.85-6.44,1.39-10.13,1.39-7.43,0-21.53-2.39-32.47-18.38-.82-1.2-1.55-2.46-2.19-3.77-4.76-9.73-5.16-20.38-1.41-29.41,.26-1.35,.62-2.96,1.16-4.78,1.92-8.13,6.89-14.63,10.64-19.54,3.64-4.77,8.85-11.17,15.94-19.59,11.56-13.72,26.57-30.97,42.66-49.42-.16,.06-.32,.13-.48,.19-8.52,3.94-17.75,7.73-29.15,8.96-5.01,10.93-13.05,20.78-24.23,29.73-.03,.03-.07,.05-.1,.08-11.43,9.07-20.88,13.72-33.72,16.57-.39,.09-.79,.17-1.19,.24-.53,.1-.85,.17-1.39,.3-1.66,.39-4.76,1.11-8.74,1.11-3.34,0-6.24-.49-8.69-1.16-.36-.07-.71-.15-1.06-.23-3.32,.74-6.8,1.22-10.36,1.22-2.56,0-5.05-.25-7.45-.73-12.25-1.8-19.66-10.24-22.66-13.64-.11-.13-.22-.25-.33-.38-6.77-6.49-10.13-15.8-9.02-25.16l7.3-61.84c-7.69-4.48-14.54-10.78-20.64-18.94-3.81-5.1-5.9-11.27-5.97-17.63-.25-23.06,13.34-38.93,24.61-49.55-3.22-29.89-12.07-58.65-18.98-77.64-.93-2.57-1.5-5.22-1.71-7.89-1.14-1.75-2.09-3.63-2.84-5.59-6.46-16.91-10.58-22.22-12.47-23.88-2.66-2.34-4.85-5.11-6.51-8.14-.25-.31-.54-.65-.82-.97-1.89-1.22-4.15-2.84-6.42-5.07-3.83-3.75-6.59-8.15-8.21-12.83-.67-1.3-1.29-2.58-1.88-3.81-.23-.48-.45-.95-.65-1.36-2.44-3.99-3.89-8.46-4.29-13.05-.12-.66-.29-1.52-.41-2.12-.77-3.94-1.38-7.06-1.07-11.31,.16-2.18,.56-4.34,1.18-6.43,6.9-23.02,21.63-34.93,36.81-44.12,2.76-1.96,5.9-3.64,9.48-5.33,7.88-3.73,13.78-5.32,19.72-5.32,.88,0,1.76,.04,2.64,.11,3.45,.02,6.54,.37,9.34,.96,3.48-.88,6.15-1.07,8.42-1.07,.79,0,1.57,.03,2.35,.09,.11,0,.21,0,.32,0,9.67,0,15.72,2.54,20.35,5.03,5.67,1.99,10.62,5.65,14.2,10.49,14.5,19.65,16.93,21.53,38.37,32.47,32.64,10.74,70.14,17.25,106.43,23.54,25.46,4.42,51.77,8.98,76.7,15.03,5.75,.99,11.2,2.86,16.26,5.57,3.21,.69,7.04,1.81,11.7,4.17,5.14,2.42,7.7,4.08,10.8,6.41,.69,.52,1.18,.89,2.43,1.7,4.35,2.8,7.91,5.89,10.68,9.24,1.46,1.53,2.64,3.01,3.61,4.24,3.95,3.63,6.91,8.29,8.48,13.57,5.63,19.01,4.53,37.5-3.27,55.2,.35-.03,.66-.06,.93-.09,1.23-.15,2.46-.23,3.68-.23,6.65,0,13.15,2.21,18.45,6.34,.06,.05,.12,.09,.18,.14,2.83-1.72,5.94-2.96,9.19-3.67,12.49-30.02,22.86-62.73,32.94-94.5l.5-1.58c1.71-11.77,2.34-30.41,2.85-45.55,.22-6.58,.43-12.8,.71-18.18,.26-5.03,1.78-9.82,4.3-13.99,.29-.81,.62-1.75,.83-2.37,.64-1.85,1.25-3.58,1.97-5.29,1.42-3.59,3.41-6.89,5.55-10.45,1.14-1.89,2.06-3.38,2.82-4.58,.77-1.6,1.68-3.2,2.73-4.78,1.97-2.98,3.94-5.49,5.85-7.6,5.44-9.2,13.24-13.48,17.52-15.82,.37-.2,.76-.41,1.17-.64,10.85-7.15,21.07-10.34,32.98-10.34m0-10c-13.71,0-25.85,3.75-38.17,11.79-.21,.11-.41,.22-.6,.33l-.18,.1c-4.59,2.52-13.99,7.68-20.79,18.62-2.12,2.42-4.17,5.12-6.11,8.06-1.17,1.77-2.22,3.59-3.13,5.41-.78,1.24-1.66,2.68-2.64,4.3-2.22,3.68-4.51,7.49-6.24,11.8-.83,1.97-1.51,3.9-2.16,5.78-.14,.41-.32,.92-.5,1.45-3.07,5.4-4.86,11.5-5.18,17.71-.29,5.51-.5,11.75-.72,18.36-.49,14.46-1.09,32.38-2.64,43.66l-.25,.78c-9.5,29.94-19.3,60.85-30.83,89.29-.35,.13-.7,.26-1.05,.4-3.17-1.75-6.58-3.06-10.1-3.9,4.26-15.84,3.94-32.21-.98-48.81-1.98-6.67-5.66-12.71-10.68-17.52-.98-1.23-2.12-2.61-3.51-4.1-3.38-4.03-7.67-7.73-12.75-11-.94-.6-1.22-.82-1.83-1.28-3.48-2.62-6.63-4.68-12.44-7.42-4.19-2.1-8.23-3.59-12.61-4.64-5.54-2.81-11.48-4.79-17.69-5.9-25.15-6.09-51.52-10.66-77.02-15.09-35.67-6.19-72.52-12.58-104.3-22.95-19.57-10-20.99-11.28-34.18-29.15-4.62-6.27-10.9-11-18.18-13.72-5.36-2.8-12.93-5.86-24.41-5.87-.89-.06-1.78-.09-2.68-.09-1.96,0-4.86,.1-8.62,.86-2.8-.46-5.71-.71-8.69-.75-1.02-.08-2.05-.11-3.08-.11-7.52,0-14.7,1.88-24,6.28-4.47,2.12-7.79,3.98-10.68,6C26.8,68.32,9.65,81.75,1.69,108.34c-.84,2.79-1.37,5.67-1.58,8.58-.41,5.59,.39,9.65,1.23,13.96,.09,.45,.21,1.06,.31,1.6,.58,5.78,2.44,11.44,5.41,16.43,.07,.15,.14,.3,.21,.45l.22,.46,.03,.06c.53,1.1,1.07,2.22,1.67,3.41,2.18,5.93,5.77,11.45,10.41,16,1.91,1.87,4,3.59,6.34,5.21,2.1,3.47,4.7,6.59,7.76,9.29,.28,.29,3.65,3.94,9.77,19.97,.7,1.82,1.53,3.6,2.49,5.31,.39,2.73,1.06,5.43,2.01,8.03,6.32,17.36,14.36,43.29,17.86,70.5-11.39,11.49-24.37,28.76-24.1,53.39,.09,8.54,2.84,16.67,7.96,23.51,5.38,7.2,11.42,13.21,18,17.95l-6.57,55.68c-1.44,12.23,2.93,24.61,11.7,33.23l.08,.09c3.49,3.97,12.73,14.47,28.44,16.89,2.97,.58,6.05,.88,9.18,.88,3.31,0,6.67-.32,10.22-.98,3.24,.76,6.56,1.15,9.89,1.15,5.13,0,9.11-.93,11.01-1.38,.5-.12,.63-.15,.89-.19,.53-.1,1.06-.2,1.58-.32,9.06-2.02,16.79-4.92,24.44-9.32-2.11,2.62-3.93,4.93-5.48,6.96-3.95,5.17-9.91,12.97-12.36,23.04-.43,1.49-.8,2.99-1.12,4.49-4.46,11.54-3.73,24.84,2.05,36.66,.85,1.74,1.83,3.43,2.92,5.02,13.54,19.78,31.32,22.73,40.72,22.73,3.33,0,6.68-.36,9.98-1.07,3.57,.87,7.2,1.3,10.84,1.3,9.35,0,18.48-2.85,26.42-8.24,1.78-1.01,3.61-2.04,5.47-3.1l.05-.03c11.77-6.69,25.09-14.28,34.54-16.74,.43-.11,.86-.23,1.29-.36,15.33-4.55,31.89-6.86,49.23-6.86,33.79,0,70.83,8.53,110.09,25.37,.85,.36,1.71,.7,2.58,1,1.78,.62,4.2,1.68,6.77,2.81,9.23,4.04,21.84,9.56,37.32,9.56,3.04,0,6.07-.22,9.05-.65,2.86,.42,5.8,.63,8.76,.63,4.32,0,8.14-.44,10.26-.69,24.51-2.33,37.56-18.42,44.58-27.07l.08-.1c.37-.46,.75-.93,1.13-1.39,2.48-2.82,4.72-5.71,6.71-8.27,.64-.83,1.68-2.17,2.25-2.87,6.23-6.96,8.77-14.64,10.04-18.86,2.87-6,4.19-12.65,3.85-19.3-.22-4.2-.87-8.23-1.85-12.1,6.83,4.49,13.61,7.33,23.21,7.33,.5,0,1,0,1.5-.03,.49,.03,1.44,.1,1.94,.14,2.29,.18,5.36,.42,8.78,.42,2.73,0,5.41-.16,7.96-.47,2.28,.19,4.69,.27,7.64,.27,.75,0,1.5,0,2.24-.01h.22c.45,0,.9,0,1.34,0,.16,0,.29,0,.4,0,1.35,.13,2.71,.2,4.06,.2,7.06,0,12.61-1.74,16.75-3.35,6.5-1.68,12.51-4.98,17.41-9.58,4.51-4.24,11.47-10.76,15.95-14.95,2.48-2.33,4.67-4.97,6.49-7.85,1.88-2.97,3.17-5.8,4.66-9.07,.3-.66,.79-1.73,1.21-2.63,4.34-6.32,6.76-13.68,7.01-21.36l.41-12.61c.25-7.84-1.78-15.51-5.88-22.2-4.24-6.91-7.77-20.29-10.89-32.09-4.35-16.46-8.84-33.47-17.61-49.26-6.04-11.31-6.28-16.48-6.26-17.45,2.09-6.71,2.38-13.87,.82-20.74-1.55-6.82-5.65-16.6-16.39-24.67-2.12-1.88-4.43-3.52-6.89-4.91-10.52-26.06-19.24-56.59-25.31-88.6-.44-16.22-.72-41.28-.11-60.17,2.48-15.89,3.97-35.89,4.01-53.65,.02-10.24-3.82-19.98-10.82-27.45l-2.22-2.37c-6.71-7.15-15.78-11.58-25.54-12.47-2.92-.27-5.59-.4-8.18-.4-3.37,0-6.67,.23-9.86,.68-.78-.12-1.57-.21-2.36-.29-2.93-.27-5.61-.4-8.2-.4h0Zm-33.16,386.46c1.04-1.7,1.97-3.42,2.78-5.16,6.26,18.78,12.96,37.76,21.21,55.81-.02,.32-.03,.63-.04,.95-6.8-8.37-13.96-17.48-21.51-27.09-3.39-4.31-6.86-8.72-10.34-13.12,3.26-3.28,5.93-7.12,7.9-11.39h0Z"/></g><g><g><path d="M623.6,462.82c-.18,0-.35,0-.53-.02l-15.23-.49c-2.04-.02-2.93-.59-11.84-7.44-1.17-.9-2.62-2.02-3.04-2.31-1.46-.9-2.34-2.48-2.37-4.17-.17-.68-.69-2.15-1.01-3.07-1.15-3.3-1.72-5.05-1.56-6.7l.29-8.89-1.63-3.54c-10.24-20.95-18.22-45.36-25.93-68.96-3.24-9.93-6.59-20.16-10.05-29.97l-55.11-1.77c-.24,0-.49-.03-.72-.08-2.35,1.93-5.98,11.06-7.58,15.06-1.76,4.41-2.96,7.37-4.23,9.4-.28,2.18-.83,4.61-1.36,6.98-.55,2.45-1.12,4.97-1.27,6.71,.01,2.25-1.26,4.14-2.4,5.82-.23,.34-.55,.82-.75,1.15-.24,1.44-1.11,2.72-2.41,3.48-2.68,1.56-5.88,4.73-8.97,7.79-3.61,3.56-7.34,7.25-11.17,9.41l-11.72,6.53c-.75,.42-1.58,.63-2.43,.63-.11,0-.22,0-.32-.01-.48-.03-1.22-.05-1.95-.06-.77-.02-1.52-.04-2.02-.06-.26-.01-.53-.05-.79-.11-4.08-.89-8.9-4.81-10.74-8.74-3.03-6.6-1.06-14.69,.52-21.19,.37-1.53,.73-2.98,.96-4.2,.09-.49,.26-.96,.49-1.39,2.74-5.22,5.53-12.6,8.24-19.75,2.59-6.85,5.27-13.92,8.03-19.44v-.09c-4.6-.73-10.9-2.05-13.16-3.67-.84-.6-1.47-1.45-1.81-2.43-3.47-10.03-2.73-13,.62-22.76h.02c.27-.76,.77-1.53,1.55-2.26l22.25-20.86c.75-.7,1.69-1.16,2.71-1.3,3.68-.53,9.13-1.94,12.53-3.41,.9-2,1.8-3.88,2.67-5.72,2.72-5.73,5.3-11.13,7.23-18.49,.04-.17,.1-.33,.16-.49,12.07-32.13,21.75-60.45,29.59-86.56,2.17-13.21,2.84-33,3.43-50.47,.22-6.46,.42-12.57,.69-17.72,.06-1.24,.58-2.38,1.42-3.24,.62-1.2,1.78-4.54,2.36-6.21,.98-2.83,1.38-3.94,1.91-4.79,1.55-3.63,5.19-9.24,6.86-11.73,.34-1.06,.92-2.05,1.54-2.99,.82-1.24,3.06-4.45,5.5-6.54,1.88-4.83,5.37-6.74,9.04-8.76,.72-.39,1.48-.81,2.31-1.29,7.05-4.76,12.62-6.62,19.82-6.62,1.52,0,3.16,.08,5.02,.25,1.22,.11,2.36,.67,3.19,1.56l2.22,2.37c.91,.97,1.39,2.25,1.35,3.58l-.92,28.68c0,.14-.01,.28-.03,.41-.42,3.61-.96,6.88-1.48,10.04-.62,3.75-1.21,7.3-1.47,10.82-.74,19.79-.49,48.18,.1,67.67,2.34,18.19,7.98,36.76,13.45,54.72,.63,2.06,1.25,4.12,1.87,6.18,1.26,3.95,2.48,8.01,3.65,11.94,3.96,13.21,7.71,25.71,13.74,37.11,1.16,.54,2.61,1.36,4.66,2.53,1.27,.72,3.11,1.77,3.98,2.18,1.2,.19,2.32,.82,3.12,1.81,.19,.15,.56,.42,.82,.6,1.47,1.04,3.49,2.47,4.06,4.99,.22,.95,.15,1.94-.19,2.85-.36,.98-1.01,3.7-1.24,11,0,.04,0,.09,0,.14-.62,10.49,2.45,16.75,6.33,24.66,1.35,2.75,2.75,5.6,4.09,8.82,6.64,11.98,10.56,26.82,14.36,41.18,3.92,14.83,7.97,30.16,14.89,41.45,.51,.83,.77,1.8,.73,2.77l-.41,12.62c-.04,1.3-.59,2.52-1.51,3.42-.78,1.06-2.57,4.98-3.55,7.1-1.16,2.54-1.85,4.03-2.45,4.97-.23,.36-.5,.69-.81,.98-4.49,4.2-11.46,10.74-15.98,14.99-.9,.85-2.08,1.32-3.3,1.35-.44,.14-1.22,.46-1.73,.67-1.79,.73-3.47,1.42-5.17,1.42Zm-98.39-209.84c-1.71,3.89-3.73,8.8-4.84,12.89,1.24-.22,2.7-.43,4.45-.67,1.03-.14,2.43-.34,3.65-.54-.46-2.17-1.34-5.13-1.95-7.16-.5-1.69-.94-3.18-1.3-4.53Z"/><path d="M562.21,40c1.43,0,2.93,.08,4.56,.23l2.22,2.37c-.23,7.13-.69,21.53-.92,28.68-.91,7.88-2.48,14.38-2.98,21.15-.75,19.92-.51,48.31,.1,68.34,2.64,20.76,9.33,41.44,15.52,61.94,5.71,17.94,9.93,35.88,18.72,51.71,.03-.01,.06-.02,.1-.02,1.33,0,9.77,5.56,11.1,5.56,.04,0,.07,0,.1-.02,.78,1.14,3.64,2.42,3.91,3.57-.84,2.27-1.36,6.47-1.55,12.58-.94,15.8,5.71,23.35,10.9,35.95,13.3,23.74,15.36,60,29.49,83.07-.1,3.13-.31,9.51-.41,12.62-1.72,1.47-5.5,11.04-6.73,12.99-4.49,4.2-11.46,10.74-15.99,14.99-.06,0-.12-.01-.19-.01-1.45,0-5.15,2.1-6.59,2.1-.07,0-.13,0-.18-.01-3.85-.12-11.63-.37-15.49-.5-.84,0-11.62-8.63-12.34-9.01,.26-1.13-2.83-8.14-2.57-9.27l.33-10.33-2.15-4.66c-14.87-30.4-24.78-67.87-36.93-101.68-14.15-.45-44.2-1.42-58.51-1.88-.38-.13-.76-.2-1.13-.2-7.13,0-12.79,23.6-16.41,27.77-.28,4.27-2.52,11.15-2.79,15.42,.17,1.4-3.25,4.82-3.07,6.22-6.51,3.8-13.64,13.53-20.08,17.16l-11.69,6.52c-.99-.06-3.04-.07-4.02-.13-2.55-.56-6.12-3.5-7.27-5.98-2.91-6.35,.68-16.08,1.87-22.34,5.72-10.89,11.14-29.38,16.8-40.23l.18-5.74c-2.15-.03-13.45-1.97-15.4-3.37-2.95-8.55-2.57-10.21,.63-19.5l22.5-21.1c4.38-.63,11.75-2.52,15.66-4.67,3.92-9.01,8.04-15.73,10.9-26.64,10.88-28.95,21.03-57.97,29.79-87.19,3.1-18.57,3.25-50.23,4.23-69.06,1.37-.73,4.26-10.86,4.98-11.9,.02-.92,6.67-11.66,7.29-12.4-.25-1.22,5.48-8.18,6.59-8.4,1.35-4.98,4.56-5.83,9.76-8.87,6.39-4.34,11.05-5.85,17.15-5.85m-44.22,231.81c1.22-1.43,14.52-1.94,15.62-3.52,1.23-4.07-4.82-17.66-4.46-21.96-.06,.02-.12,.03-.17,.03-1.32,0-2.25-5.31-3.08-5.31h-.02l-3.03,5.07c-2.85,6.16-8.72,18.83-8.29,25.58l3.44,.11m44.22-241.81c-8.14,0-14.68,2.14-22.47,7.38-.7,.41-1.39,.78-2.06,1.15-3.7,2.03-8.17,4.48-10.81,10.18-.5,.5-1.01,1.04-1.52,1.63-1.47,1.66-2.92,3.52-3.97,5.11-.48,.72-1.26,1.9-1.85,3.42-.83,1.27-1.92,3.02-3.25,5.24-2.19,3.64-3.45,5.85-4.13,7.61-.49,1.07-.95,2.39-1.63,4.36-.46,1.31-1.34,3.84-1.88,5.1-1.29,1.61-2.07,3.6-2.18,5.73-.27,5.2-.48,11.33-.7,17.82-.55,16.33-1.23,36.59-3.31,49.51-7.79,25.92-17.41,54.04-29.39,85.93-.12,.32-.22,.65-.31,.98-1.81,6.9-4.17,11.87-6.91,17.61-.61,1.29-1.23,2.6-1.86,3.95-2.77,.98-6.59,1.96-9.54,2.38-2.03,.29-3.92,1.2-5.42,2.6l-11.25,10.55-7.73,7.25-2.55,2.39-.71,.67c-1.43,1.34-2.34,2.81-2.85,4.28h-.01c-3.83,11.12-4.39,15.13-.62,26.02,.68,1.96,1.94,3.65,3.63,4.86,1.59,1.14,3.8,2.17,8.91,3.33-1.9,4.43-3.73,9.29-5.53,14.04-2.65,7-5.39,14.24-7.99,19.19-.46,.88-.79,1.81-.97,2.79-.21,1.1-.55,2.48-.9,3.95-1.67,6.87-3.96,16.27-.23,24.41l.04,.08c2.5,5.34,8.61,10.29,14.2,11.5,.52,.11,1.04,.18,1.57,.21,.62,.04,1.39,.05,2.2,.07,.6,.01,1.42,.03,1.73,.05,.22,.01,.43,.02,.65,.02,1.7,0,3.38-.43,4.87-1.26l11.69-6.52c4.46-2.51,8.43-6.44,12.27-10.23,2.74-2.71,5.85-5.78,7.98-7.03,2.24-1.31,3.84-3.41,4.55-5.8,.08-.12,.17-.25,.24-.35,1.3-1.93,3.19-4.74,3.25-8.39,.14-1.4,.67-3.74,1.14-5.83,.48-2.13,.97-4.31,1.3-6.41,1.27-2.27,2.46-5.2,4.06-9.23,1.22-3.06,3.52-8.85,5.29-11.78l30.13,.97,19.76,.63c3.05,8.77,6,17.82,8.88,26.63,7.76,23.75,15.78,48.31,26.17,69.56l1.11,2.41-.24,7.55c-.23,2.76,.66,5.32,1.82,8.67,.23,.66,.58,1.67,.77,2.29,.29,3,1.93,5.77,4.52,7.45,.47,.35,1.75,1.33,2.8,2.13,8.97,6.9,10.95,8.43,14.77,8.48l6.33,.2,8.74,.28c.27,.02,.53,.03,.8,.03,2.68,0,5.01-.95,7.07-1.79,.27-.11,.62-.25,.91-.37,2.09-.25,4.07-1.16,5.64-2.64,4.52-4.25,11.49-10.78,15.98-14.98,.62-.58,1.17-1.24,1.62-1.96,.77-1.22,1.48-2.75,2.77-5.56,.8-1.74,2.23-4.88,2.96-6.09,1.56-1.74,2.47-3.99,2.55-6.36l.41-12.62c.06-1.95-.45-3.88-1.47-5.55-6.54-10.67-10.32-24.97-14.32-40.12-3.84-14.56-7.82-29.61-14.68-42.08-1.36-3.25-2.76-6.09-4.11-8.84-3.7-7.54-6.37-12.99-5.83-22.16,0-.09,0-.18,.01-.27,.23-7.22,.86-9.22,.93-9.43,.68-1.82,.81-3.79,.38-5.69-.99-4.38-4.28-6.71-6.04-7.96-.09-.07-.19-.13-.28-.2-1.33-1.44-3.03-2.42-4.87-2.89-.85-.44-2.26-1.25-3.18-1.77-1.3-.74-2.42-1.38-3.44-1.92-5.39-10.61-8.93-22.39-12.65-34.8-1.18-3.92-2.39-7.98-3.68-12.02-.62-2.04-1.24-4.08-1.86-6.12-5.38-17.68-10.94-35.96-13.24-53.66-.58-19.37-.83-47.4-.1-66.99,.25-3.27,.81-6.68,1.41-10.29,.53-3.22,1.08-6.55,1.51-10.28,.03-.28,.05-.55,.06-.83l.43-13.47,.49-15.21c.08-2.65-.89-5.23-2.7-7.16l-2.22-2.37c-1.67-1.79-3.95-2.9-6.39-3.12-2.01-.18-3.8-.27-5.47-.27h0Z"/></g><g><path d="M484.82,545.84c-.54,0-1.07-.09-1.59-.26-3.7-1.24-8.72-3.33-14.03-5.54-4.2-1.75-8.54-3.56-11.98-4.83-.06-.02-.13-.05-.19-.08-38.07-15.86-73.48-25.21-108.25-28.61-.16-.02-.32-.04-.48-.07-2.57-.51-5.76-.75-9.74-.75-5.94,0-12.67,.57-18.6,1.08-4.74,.4-9.22,.79-12.87,.85-5.28,.66-10.8,.97-16.64,1.3-12.82,.72-26.07,1.47-36.31,6.08-.25,.11-.52,.21-.79,.28-13.92,3.63-29.38,12.43-43.02,20.19-2.4,1.37-4.75,2.7-7.03,3.97-2.43,1.88-4.98,2.83-7.59,2.83-5.36,0-9.25-3.97-12.04-7.44-.23-.29-.44-.61-.6-.94-.71-1.46-2.8-6.49,.05-10.3,.15-.22,.19-.34,.34-1.48,.17-1.27,.39-2.95,1.17-5.29,.31-2.23,2.06-5.04,6.24-10.51,3.39-4.44,8.36-10.55,15.19-18.65,12.66-15.03,29.65-34.49,47.62-55.1,27.95-32.04,64.56-73.99,77.18-91.21-3.3,.99-6.4,2.37-10.2,4.05-2.64,1.17-5.64,2.5-9.14,3.88-15.73,6.12-32.39,13.65-48.51,20.94-6.01,2.72-11.69,5.29-17.25,7.75-12.07,7.04-35.17,16.95-47.13,21.48-1.9,.77-3.55,1.5-5.14,2.21-3.41,1.52-6.63,2.95-11.04,4.11-.3,.08-.61,.13-.93,.15-1.23,.09-3.19,.25-5.11,.41-1.76,.15-3.48,.29-4.61,.37-.12,0-.24,.01-.36,.01-1.68,0-3.26-.85-4.19-2.27-.17-.2-.99-.87-1.53-1.31-2.27-1.86-6.36-5.21-5.8-10.16-.98-7.31,1.24-15.35,6.46-23.32,4.32-6.6,10.48-12.75,16.94-16.92,9.56-7.93,16.48-9.48,25.22-11.43,2.08-.47,4.24-.95,6.63-1.56,3.51-.92,5.22-1.92,7.81-3.44,2.17-1.27,4.85-2.84,9.13-4.6,18.12-8.97,37.81-17.22,56.85-25.2,15.23-6.38,30.98-12.99,45.45-19.77,.22-.1,.44-.19,.67-.26,2.97-.9,6.45-1.87,10.13-2.9,9.11-2.54,19.43-5.42,26.26-8.43,2.45-1.22,13.33-5.82,16.58-6.25,.07,0,.15-.02,.22-.02,1.66-.14,4.21-.34,6.71-.54,2.22-.17,4.4-.34,5.88-.47,.14-.01,.28-.02,.42-.02,1.01,0,2,.31,2.84,.89,3.64,2.52,5.62,6.3,5.62,10.72,.76,3.02,1.03,6.29,.8,9.95,.99,6.18-4.53,16.25-6.41,19-3.13,5.77-7.18,11.42-11.09,16.88-3.89,5.42-7.56,10.55-10.34,15.68-.15,.28-.33,.55-.53,.79-25.01,30.48-55.06,66.53-81.57,98.34-3.08,3.7-6.13,7.35-9.13,10.95,11.29-1.94,22.91-3.9,33.31-4.4,6.71-.61,14.18-.9,22.83-.9,9.85,0,19.8,.38,29.42,.74,3.54,.13,7.04,.27,10.46,.38,.26,0,.52,.04,.78,.09,4.95,.95,12.95,2.48,20.28,3.27-.37-.5-.73-1.01-1.07-1.51-1.7-2.55-3.09-3.99-4.69-5.65-1.4-1.45-2.98-3.09-4.7-5.47-3.9-4.88-9.17-9.33-14.75-14.04-1.16-.98-2.32-1.96-3.49-2.96-2.3-1.91-4.47-3.62-6.38-5.12-7.2-5.69-11.96-9.45-13.19-15.54-1.21-5.97,1.41-12.56,7-23.39,.26-.51,.61-.96,1.02-1.35,2.37-2.22,4.97-4.87,7.72-7.68,3.17-3.23,6.44-6.57,9.41-9.27,.82-.75,1.86-1.2,2.96-1.29l19.26-1.53c.38-.06,.77-.08,1.17-.08,5.52,0,11.89,5.41,20.29,13.06,1.96,1.79,4.19,3.81,5.05,4.37,.63,.41,1.16,.95,1.56,1.6,2.1,3.44,5.89,7.43,9.56,11.28,3.6,3.78,7.32,7.69,9.89,11.52,8.63,10.38,19.32,23.92,29.65,37.01,8.05,10.21,15.66,19.85,22.33,28.05,9.3,11.02,12.9,16.89,17.88,25.02,1.49,2.43,3.03,4.95,4.92,7.92,.44,.69,.7,1.47,.76,2.28l.5,6.29c.1,1.32-.31,2.61-1.15,3.61-.27,.61-.7,2.07-.97,2.98-.85,2.88-1.53,5.18-3.07,6.76-1.01,1.17-2.3,2.83-3.66,4.59-1.86,2.41-3.79,4.89-5.64,6.95-.61,.73-1.2,1.47-1.79,2.19-5.38,6.63-10.95,13.49-21.09,14.32-1.07,.11-2.89,.24-4.68,.38-1.51,.11-2.98,.22-3.88,.31-.16,.01-.31,.02-.47,.02Z"/><path d="M401.28,272.85c2.53,1.75,3.61,4.28,3.45,7.21,.9,3.16,1.04,6.46,.77,9.73,1.21,3.16-3.54,13.39-5.63,15.99-5.95,11.06-15.66,21.9-21.57,32.81-30.67,37.37-68.36,82.47-99.29,119.61,14.17-2.18,31.74-5.88,46.12-6.55,7.22-.66,14.8-.89,22.48-.89,13.38,0,27.07,.71,39.72,1.12,8.09,1.55,20.55,3.87,29.42,3.87,.68,0,1.34-.01,1.97-.04-1.44-1.21-3.17-4.64-3.36-6.07-.02,0-.04,0-.06,0-.77,0-2.01-1.24-3.7-3.73-3.56-5.34-6.2-6.68-9.54-11.33-5.05-6.37-12-11.81-18.98-17.78-18.96-15.69-23.51-14.47-11.37-37.96,5.27-4.94,11.74-12.05,17.08-16.91,4.81-.39,14.62-1.16,19.45-1.55,.18-.03,.37-.05,.57-.05,5.8,0,18.69,14.08,22.63,16.63,4.56,7.48,14.85,15.82,19.7,23.19,15.14,18.19,36.57,46.1,52.12,65.23,11.83,14.02,14.16,19.4,22.45,32.47,.12,1.54,.38,4.74,.5,6.29-1.42,1.28-2.44,8.24-3.85,9.52-2.52,2.88-6.28,8.19-9.43,11.69-5.86,7.06-10.52,14.09-19.55,14.8-1.93,.19-6.59,.5-8.58,.68-6.48-2.17-18.1-7.46-25.87-10.32-35.6-14.83-71.63-25.25-109.69-28.97-3.14-.62-6.8-.85-10.7-.85-10.99,0-23.81,1.83-31.82,1.93-17.08,2.16-38.71,.64-54.65,7.81-17.2,4.49-36.12,16.22-51.57,24.83-1.73,1.41-3.32,2-4.8,2-3.11,0-5.74-2.58-8.15-5.57-.47-.96-1.49-3.76-.41-5.15,1.77-2.49,.69-4.04,2.46-8.83-1.98-6.65,156.26-177.62,150.38-182.99-12.11,.74-17.79,4.99-30.3,9.9-21.77,8.47-45.58,19.75-66.22,28.88-11.47,6.74-34.12,16.53-46.67,21.28-6.13,2.47-9.66,4.56-15.63,6.14-2.35,.17-7.37,.6-9.73,.78-1.55-2.38-7.41-4.93-6.45-8.7-2.36-13.77,10.13-29.16,21.29-36.24,10.87-9.1,17.48-8.97,30.12-12.19,7.6-1.99,8.7-4.62,17.76-8.32,32.59-16.15,69.79-29.73,102.36-45,10.28-3.12,27.07-7.16,37.08-11.59,2.31-1.2,12.84-5.52,15.08-5.81,3.14-.27,9.44-.74,12.59-1m0-10c-.28,0-.55,.01-.83,.03-1.47,.12-3.63,.29-5.83,.46-2.52,.2-5.09,.4-6.77,.54-.15,.01-.3,.03-.45,.05-4.25,.56-15.25,5.36-17.91,6.61-6.51,2.87-16.66,5.7-25.63,8.2-3.71,1.03-7.21,2.01-10.24,2.93-.46,.14-.91,.31-1.34,.51-14.37,6.74-30.07,13.32-45.26,19.69-19.06,7.99-38.77,16.25-56.98,25.26-4.5,1.86-7.32,3.51-9.59,4.84-2.38,1.39-3.7,2.16-6.55,2.91-2.3,.59-4.41,1.06-6.45,1.51-8.97,2.01-16.73,3.74-27.09,12.28-14.42,9.4-27.37,27.27-25.47,44.31-.55,7.27,5.11,11.9,7.66,14,.3,.25,.69,.57,.92,.77,1.89,2.49,4.84,3.95,7.96,3.95,.24,0,.48,0,.73-.03,1.14-.08,2.88-.23,4.66-.37,1.9-.16,3.83-.32,5.05-.4,.63-.04,1.24-.15,1.85-.31,4.8-1.27,8.2-2.78,11.79-4.38,1.54-.68,3.13-1.39,4.93-2.12,12.4-4.7,35.11-14.44,47.59-21.67,5.49-2.44,11.1-4.97,17.03-7.65,16.06-7.26,32.66-14.77,48.25-20.83,.63-.25,1.24-.49,1.83-.73-3.21,3.94-7.08,8.6-11.74,14.13-15.25,18.1-34.7,40.38-53.5,61.93-17.99,20.62-34.99,40.1-47.68,55.17-6.88,8.17-11.9,14.33-15.34,18.84-3.75,4.91-6.44,8.62-7.14,12.36-.83,2.61-1.09,4.57-1.26,5.82v.05c-3.65,5.87-.91,12.57,.08,14.58,.33,.67,.73,1.3,1.2,1.89,2.05,2.54,7.49,9.3,15.93,9.3,3.63,0,7.11-1.22,10.34-3.64,2.19-1.23,4.41-2.49,6.75-3.82,13.37-7.61,28.52-16.23,41.81-19.7,.54-.14,1.07-.33,1.58-.56,9.4-4.23,22.18-4.95,34.55-5.65,5.57-.31,11.32-.64,16.71-1.29,3.76-.08,8.23-.46,12.94-.86,5.83-.5,12.45-1.06,18.18-1.06,3.6,0,6.55,.22,8.77,.66,.32,.06,.64,.11,.96,.14,34.27,3.35,69.21,12.59,106.82,28.25,.13,.05,.26,.1,.39,.15,3.34,1.23,7.64,3.02,11.79,4.75,5.4,2.25,10.5,4.37,14.37,5.67,1.02,.34,2.1,.52,3.17,.52,.31,0,.62-.01,.93-.04,.83-.08,2.34-.19,3.79-.3,1.85-.14,3.59-.27,4.75-.38,12.25-1.01,19.05-9.4,24.53-16.15,.56-.69,1.12-1.39,1.7-2.08,1.95-2.18,3.99-4.81,5.8-7.15,1.28-1.65,2.48-3.21,3.4-4.27,2.32-2.44,3.22-5.5,4.18-8.73,.18-.6,.42-1.43,.61-1.97,1.27-1.86,1.88-4.13,1.7-6.42l-.3-3.75-.2-2.54c-.13-1.62-.65-3.19-1.53-4.56-1.86-2.94-3.4-5.44-4.88-7.85-5.08-8.3-8.76-14.3-18.31-25.63-6.64-8.17-14.21-17.77-22.24-27.94-10.29-13.04-20.92-26.51-29.57-36.91-2.79-4.11-6.59-8.1-10.27-11.97-3.49-3.66-7.09-7.45-8.91-10.43-.78-1.27-1.83-2.36-3.07-3.17-.72-.51-2.86-2.46-4.44-3.89-9.53-8.67-16.32-14.36-23.66-14.36-.57,0-1.14,.04-1.7,.11-2.25,.18-5.45,.43-8.71,.69-3.89,.31-7.86,.62-10.41,.83-2.21,.18-4.29,1.08-5.93,2.57-3.07,2.8-6.4,6.19-9.61,9.47-2.72,2.77-5.28,5.39-7.57,7.53-.83,.78-1.52,1.69-2.05,2.71-6.13,11.86-8.97,19.25-7.46,26.67,1.6,7.89,7.51,12.56,14.99,18.47,1.87,1.48,3.99,3.15,6.29,5.05,1.15,.99,2.31,1.96,3.45,2.92,5.36,4.52,10.42,8.79,14,13.25,.75,1.03,1.47,1.93,2.15,2.73-2.67-.47-5.11-.94-7.06-1.31-.51-.1-1.03-.16-1.55-.17-3.41-.11-6.9-.24-10.43-.38-9.67-.37-19.67-.75-29.61-.75-8.76,0-16.34,.3-23.17,.91-6.48,.32-13.54,1.2-20.53,2.27l.55-.66c26.51-31.81,56.55-67.86,81.57-98.34,.4-.49,.76-1.02,1.06-1.58,2.63-4.86,6.21-9.86,10-15.15,3.92-5.47,7.97-11.12,11.22-17.03,1.89-2.67,3.74-6.55,4.91-9.51,2.05-5.17,2.81-9.19,2.35-12.6,.18-3.7-.1-7.08-.84-10.26-.21-5.77-2.97-10.87-7.77-14.19-1.68-1.16-3.66-1.77-5.69-1.77h0Z"/></g><g><path d="M110.22,454.34c-1.12,0-2.08-.22-3.07-.58-3.45-.32-5.95-3.16-7.98-5.47-.6-.69-1.23-1.4-1.65-1.77-1.22-1.09-1.84-2.7-1.65-4.33l9.64-81.72c-6.13-.87-13.5-3.18-17.6-6.24-1.46-.87-3.25-2.75-7.85-8.05-.71-.82-1.6-1.84-1.83-2.08-1.43-1.37-1.88-3.41-1.21-5.27,.41-1.13,.52-2.72,.63-4.41,.11-1.64,.25-3.51,.69-5.36,.08-.32,.19-.64,.33-.94,4.23-9.13,12.78-16.8,20.31-23.56,1.42-1.27,2.79-2.5,4.09-3.7-.21-1.3-.32-2.76-.44-4.39-.09-1.2-.24-3.12-.42-4.02-.47-.69-.77-1.48-.85-2.32-3.36-32.93-13-64.42-20.5-85.03-.35-.97-.39-2.02-.13-3.01-.24-2.11-2.55-7.75-3.57-9.25-.43-.47-.76-1.01-.99-1.6-4.48-11.74-10.73-26.18-19.31-33.72-.7-.62-1.21-1.41-1.47-2.27-1.07-1.74-5.15-6.56-6.88-8-.34-.12-.67-.28-.98-.48l-.24-.15c-3.96-2.42-5.36-4.83-5.61-6.86-.79-1.3-1.62-2.98-2.65-5.11-.54-1.13-1.36-2.83-1.67-3.28-.64-.9-.96-1.96-.92-3.04-.1-.8-.53-2.98-.76-4.19-.61-3.1-.73-3.79-.67-4.68,.04-.56,.17-1.11,.4-1.63,.42-.97,.81-1.94,1.19-2.9,1.6-3.98,3.26-8.1,6.61-12.1,2.78-4.81,8.51-8.34,13.59-11.47,2.01-1.24,3.92-2.41,5.05-3.34l.03,.04c3.39-2.8,12.4-6.64,15.38-6.64,.56,0,1.07,.07,1.52,.18,.74,.03,1.65,.05,2.54,.08,1.14,.03,2.26,.07,3,.1,.67,.03,1.32,.19,1.92,.47,.64,.3,1.32,.72,2.12,1.21,.63,.38,1.87,1.15,2.49,1.41,1.34,.14,2.57,.81,3.42,1.88l1.08,1.37c5.6,7.13,14.06,17.9,19.94,23.4,3.91,3.44,10.42,6.75,16.71,9.96,4.19,2.13,8.16,4.15,11.45,6.24,30.71,10.81,66.64,16.98,101.4,22.94,21.66,3.72,42.12,7.23,61.57,11.8,3.61,.51,7.67,1.48,11.96,2.5,4.23,1.01,8.6,2.05,12.38,2.59,3.52,.5,6.79,1.56,9.74,3.16,0,0,.53,.29,.57,.31,2.35,1.37,3.4,1.57,4.84,1.84,1.68,.31,3.77,.71,7.05,2.4,3.85,1.8,4.96,2.58,6.74,3.92,.84,.64,1.9,1.43,3.9,2.72,2.19,1.41,4.35,2.94,5.53,4.86,.94,.87,1.84,2.01,2.9,3.36,.49,.63,1.28,1.62,1.7,2.06,.86,.51,1.56,1.28,1.98,2.21,2.03,4.42,2.86,9.29,2.39,14.08-.13,1.38-.26,2.82-.38,4.28-.58,6.86-1.24,14.63-3.61,20.56-.03,.07-.06,.14-.09,.22-8.75,19.26-25.77,32.77-42.23,45.85-6.1,4.85-11.86,9.42-17.11,14.21-.32,.29-.67,.54-1.06,.74-2.97,1.55-5.97,3.12-9,4.71-24.11,12.65-51.36,26.93-77.53,36.21-2.59,3.39-8.81,4.37-13.32,5.08-.67,.11-1.56,.25-1.99,.33-.59,.24-1.23,.36-1.87,.36h-.05c-1.02,.14-3.7,.89-4.88,1.44-.65,.75-1.52,1.31-2.52,1.57-2.11,.55-4.6,1.28-7.24,2.05-4.97,1.45-10.54,3.09-15.13,3.97-1.42,.86-3.45,1.6-6.51,2.68-1.09,.39-2.72,.96-3.77,1.39-.92,2.7-1.62,6.75-2.25,10.39-.48,2.8-.98,5.7-1.6,8.19-3.09,12.29-4.94,24.01-5.99,38.02,0,.09-.02,.19-.03,.28-1.12,8.45-4.26,13.47-9.66,19.73l-1.12,1.48c-2.86,3.79-3.13,4.07-7.24,7.48-.6,.5-2.18,1.81-2.21,1.83-8.51,6.75-14.47,9.72-23.61,11.76-.07,.01-.13,.03-.2,.04-1.16,.21-1.98,.4-2.65,.56-1.04,.24-1.94,.46-3.04,.46Zm61.71-151.52c.25,0,.5,.03,.75,.08,.89-.09,2.99-.63,4.28-.96,2.1-.53,3.59-.9,4.83-1.02,9.61-3.33,23.83-6.81,31.62-8.63,6.81-1.83,15.43-4.95,23.76-7.97,5.55-2.01,10.8-3.91,15.43-5.41,5.3-3.17,11.76-6.09,18.01-8.91,6.45-2.91,13.12-5.93,18.21-9.09,.07-.04,.34-.2,.34-.2,8.66-4.83,19.45-10.84,25.74-18.64,1.47-1.83,2.45-4.07,2.86-6.54-.98-1.29-2.17-3.01-3.04-4.75l-.08-.03c-1.67-.6-3.68-1.32-5.27-2.73-21.68-10.24-47-13.62-71.5-16.9-2.39-.32-4.75-.64-7.1-.96-18-1.84-36.49-6.1-54.37-10.22-9.01-2.07-17.62-4.06-26.04-5.72,1.88,14.79,5.1,30.28,8.23,45.32,4.3,20.69,8.75,42.03,10,62.58,.25,0,.49,.02,.71,.03,1.22,.09,2.09,.43,2.63,.65Z"/><path d="M77.28,86.43c.25,0,.44,.05,.55,.14,1.54,.07,4.77,.14,6.31,.2,1.26,.59,4.63,3.07,6.16,3.07,.02,0,.04,0,.06,0,5.55,7.06,15.01,19.26,21.58,25.39,7.22,6.39,21.25,11.77,29.32,17.02,49.98,17.71,112.62,22.99,164.26,35.14,6.98,.96,16.67,3.99,24.55,5.12,2.82,.4,5.56,1.25,8.06,2.6l.43,.23c5.89,3.44,6.53,1.46,12.2,4.41,5.83,2.71,4.41,2.66,10.13,6.36,2.81,1.81,4.21,3.1,4.18,3.87,1.36,.49,4.74,6.03,6.11,6.51,1.66,3.6,2.34,7.57,1.96,11.51-.76,7.73-1.1,17.07-3.66,23.47-11.38,25.03-38.58,40.58-58.15,58.43-27.55,14.37-58.36,31.17-88.04,41.39,.39,3.4-12.37,4.05-13.36,4.74-.04,0-.08,0-.13,0-1.43,0-8.2,1.8-8.58,3.17-6.59,1.72-16.45,5.02-23.17,6.15-.97,1.37-11.27,3.98-12.23,5.35-2.32,4.97-3.11,14.45-4.69,20.81-3.4,13.51-5.12,25.51-6.13,38.85-.98,7.39-3.65,11.52-8.6,17.24-4.46,5.87-3.07,4.42-9.8,10.02-7.81,6.2-13.01,8.88-21.59,10.79-2.83,.51-3.86,.93-4.79,.93-.59,0-1.15-.17-2.11-.58-.11,.02-.21,.03-.32,.03-2.22,0-4.87-4.16-6.95-6.01l10.26-86.96c-.26,.01-.54,.02-.82,.02-5.69,0-15.57-2.55-19.66-5.85-1.29-.47-7.94-8.57-8.88-9.47,1.14-3.17,.69-6.99,1.48-10.29,4.98-10.75,17.22-19.77,25.59-27.89-1.55-1.49-.8-11.37-2.46-12.71-2.93-28.71-10.93-59.17-20.77-86.23,1.17-2.12-3.34-12.65-4.72-13.93-4.44-11.62-11.05-27.23-20.67-35.69,.12-1.15-8.32-11.24-9.91-11.24-.03,0-.05,0-.07,0-1.04-.66-4.29-2.44-3.31-4.13-1.53-1.48-4.17-8.18-5.42-9.94,.18-.67-1.49-8.04-1.44-8.66,2.1-4.87,3.51-9.71,7.35-14.12,2.97-5.69,13.33-10.25,17.67-13.79,.52-.8,9.71-5.48,12.26-5.48m94.34,221.38c.05,0,.11,0,.17,0,.18,.06,.41,.09,.69,.09,2.42,0,8.32-2.04,10.16-2.04,.04,0,.08,0,.12,0,8.89-3.15,22.88-6.65,31.87-8.74,11.74-3.14,28.43-9.93,40.06-13.64,10.46-6.39,26.23-11.78,36.77-18.34,8.84-4.93,20.39-11.34,27.32-19.94,2.34-2.91,3.71-6.48,4.08-10.19,.04-.43,.08-.81,.03-1.02-1.26-1.16-4.47-6.46-4.37-7.03-1.52-.89-5-1.52-6.22-3.07-24.78-11.94-54.42-15.05-80.94-18.68-28.82-2.93-59.05-12.22-86.74-17.14,3.78,38.24,17.63,79.81,19.17,118.34,1.29,.88,3.69,.63,5.14,.74,1.02,.08,1.48,.67,2.68,.67M77.28,76.43c-1.97,0-4.84,.4-11.17,3.4-4.34,2.05-6.51,3.45-7.81,4.64-.97,.71-2.56,1.69-4.11,2.65-5.19,3.2-11.58,7.13-15.06,12.83-3.68,4.51-5.52,9.07-7.15,13.13-.39,.97-.76,1.89-1.15,2.79-.45,1.03-.71,2.14-.79,3.26-.11,1.58,.11,2.69,.75,5.99,.2,1,.54,2.77,.67,3.6,.04,1.91,.64,3.79,1.73,5.4,.28,.48,.92,1.82,1.35,2.71,.91,1.89,1.68,3.47,2.45,4.82,.53,2.23,1.74,4.37,3.6,6.19,1.52,1.49,3.2,2.52,4.1,3.07l.19,.11c.28,.18,.57,.34,.87,.49,1.47,1.42,4.11,4.53,5.16,6.05,.58,1.41,1.48,2.7,2.66,3.74,8.75,7.7,15.43,25.18,17.94,31.75,.38,1,.92,1.92,1.58,2.74,.78,1.37,2.1,4.64,2.55,6.39-.19,1.55-.02,3.15,.53,4.65,7.4,20.35,16.92,51.4,20.22,83.83,.13,1.23,.48,2.42,1.03,3.5,.09,.77,.17,1.89,.24,2.71,.05,.69,.1,1.37,.16,2.05-.7,.64-1.43,1.29-2.16,1.95-7.9,7.08-16.85,15.11-21.51,25.18-.28,.6-.5,1.23-.65,1.87-.54,2.25-.69,4.34-.81,6.17-.07,1.03-.18,2.58-.35,3.06-1.29,3.64-.38,7.74,2.34,10.46,.27,.29,1.02,1.16,1.62,1.85,4.62,5.33,6.79,7.68,8.9,8.98,3.99,2.88,9.59,4.89,14.81,6.08l-9.1,77.09c-.38,3.25,.85,6.48,3.29,8.65,.22,.2,.82,.88,1.21,1.33,2.27,2.58,5.58,6.34,10.63,7.07,1.21,.39,2.59,.68,4.18,.68s3-.31,4.18-.59c.64-.15,1.36-.32,2.4-.51,.13-.02,.26-.05,.4-.08,9.99-2.22,16.45-5.43,25.64-12.72,.06-.05,.13-.1,.19-.15,.81-.68,1.5-1.25,2.1-1.74,4.42-3.65,4.94-4.2,8.05-8.32,.3-.4,.64-.84,1.02-1.34,5.84-6.78,9.47-12.64,10.73-22.22,.02-.19,.04-.37,.06-.56,1.05-13.9,2.8-25.02,5.85-37.16,.67-2.7,1.19-5.69,1.68-8.58,.42-2.43,.9-5.23,1.43-7.44,.48-.17,.94-.33,1.32-.47,2.62-.92,4.79-1.69,6.6-2.64,4.64-.95,9.99-2.51,14.78-3.92,2.6-.76,5.06-1.48,7.1-2.01,1.51-.4,2.88-1.13,4.02-2.12,.81-.28,1.94-.59,2.61-.73,.94-.04,1.86-.21,2.75-.51,.39-.07,.98-.16,1.44-.23,2.26-.36,5.36-.84,8.13-1.69,3.31-1.01,5.6-2.44,7.19-4.01,26.17-9.4,53.16-23.55,77.08-36.1,3.03-1.59,6.03-3.16,8.99-4.71,.76-.4,1.47-.9,2.11-1.48,5.13-4.67,10.82-9.2,16.85-13.99,16.92-13.44,34.42-27.34,43.67-47.69,.06-.14,.13-.29,.18-.43,2.64-6.62,3.33-14.78,3.94-21.98,.12-1.44,.24-2.85,.38-4.22,.55-5.68-.42-11.44-2.83-16.66-.72-1.57-1.83-2.91-3.2-3.9-.32-.39-.77-.95-1.09-1.37-.95-1.21-1.89-2.39-2.93-3.44-1.94-2.8-4.83-4.67-6.74-5.89-1.84-1.19-2.77-1.89-3.6-2.51-2.1-1.59-3.55-2.55-7.55-4.42-3.89-1.99-6.56-2.49-8.33-2.83-1.23-.23-1.64-.31-3.24-1.24-.09-.05-.19-.11-.28-.16l-.43-.23c-3.47-1.87-7.3-3.12-11.41-3.71-3.55-.51-7.81-1.52-11.93-2.5-4.32-1.03-8.41-2-12.19-2.55-19.54-4.58-40.95-8.25-61.65-11.81-34.35-5.9-69.86-11.99-100.06-22.55-3.38-2.1-7.27-4.08-11.36-6.16-5.71-2.91-12.18-6.2-15.62-9.21-5.6-5.26-14.21-16.23-19.37-22.79l-1.08-1.37c-1.46-1.85-3.51-3.11-5.76-3.6-.46-.26-1.08-.64-1.46-.87-.88-.54-1.72-1.06-2.61-1.47-1.21-.57-2.51-.89-3.85-.94-.75-.03-1.89-.06-3.05-.1-.72-.02-1.46-.04-2.1-.06-.69-.13-1.39-.2-2.11-.2h0Zm96,221.26c-1.57-19.6-5.75-39.67-9.8-59.16-2.73-13.12-5.35-25.71-7.2-37.97,6.17,1.32,12.48,2.77,19,4.27,18,4.15,36.61,8.43,54.9,10.31,2.32,.32,4.67,.63,7.03,.95,23.9,3.19,48.6,6.49,69.46,16.2,1.53,1.2,3.16,1.98,4.61,2.55,.13,.22,.26,.43,.4,.66,.23,.37,.45,.72,.66,1.05-.33,.88-.78,1.69-1.34,2.38-5.68,7.04-15.99,12.79-24.28,17.41l-.13,.07c-.14,.08-.28,.16-.42,.25-4.8,2.99-11.32,5.93-17.62,8.78-6.19,2.8-12.58,5.68-18.02,8.89-4.57,1.49-9.68,3.34-15.05,5.29-8.21,2.97-16.69,6.04-23.28,7.82-7.77,1.81-21.75,5.24-31.52,8.58-1.5,.2-3.09,.61-4.94,1.08-.69,.17-1.65,.42-2.45,.6h0Zm37.55,44.25h0Z"/></g></g><g><g><path class="cls-2" d="M644,462.82c-.18,0-.35,0-.53-.02l-15.23-.49c-2.04-.02-2.93-.59-11.84-7.44-1.17-.9-2.62-2.02-3.04-2.31-1.46-.9-2.34-2.48-2.37-4.17-.17-.68-.69-2.15-1.01-3.07-1.15-3.3-1.72-5.05-1.56-6.7l.29-8.89-1.63-3.54c-10.24-20.95-18.22-45.36-25.93-68.96-3.24-9.93-6.59-20.16-10.05-29.97l-55.11-1.77c-.24,0-.49-.03-.72-.08-2.35,1.93-5.98,11.06-7.58,15.06-1.76,4.41-2.96,7.37-4.23,9.4-.28,2.18-.83,4.61-1.36,6.98-.55,2.45-1.12,4.97-1.27,6.71,.01,2.25-1.26,4.14-2.4,5.82-.23,.34-.55,.82-.75,1.15-.24,1.44-1.11,2.72-2.41,3.48-2.68,1.56-5.88,4.73-8.97,7.79-3.61,3.56-7.34,7.25-11.17,9.41l-11.72,6.53c-.75,.42-1.58,.63-2.43,.63-.11,0-.22,0-.32-.01-.48-.03-1.22-.05-1.95-.06-.77-.02-1.52-.04-2.02-.06-.26-.01-.53-.05-.79-.11-4.08-.89-8.9-4.81-10.74-8.74-3.03-6.6-1.06-14.69,.52-21.19,.37-1.53,.73-2.98,.96-4.2,.09-.49,.26-.96,.49-1.39,2.74-5.22,5.53-12.6,8.24-19.75,2.59-6.85,5.27-13.92,8.03-19.44v-.09c-4.6-.73-10.9-2.05-13.16-3.67-.84-.6-1.47-1.45-1.81-2.43-3.47-10.03-2.73-13,.62-22.76h.02c.27-.76,.77-1.53,1.55-2.26l22.25-20.86c.75-.7,1.69-1.16,2.71-1.3,3.68-.53,9.13-1.94,12.53-3.41,.9-2,1.8-3.88,2.67-5.72,2.72-5.73,5.3-11.13,7.23-18.49,.04-.17,.1-.33,.16-.49,12.07-32.13,21.75-60.45,29.59-86.56,2.17-13.21,2.83-33,3.42-50.47,.22-6.46,.42-12.57,.69-17.72,.06-1.24,.58-2.38,1.42-3.24,.62-1.2,1.78-4.54,2.36-6.2,.98-2.83,1.38-3.94,1.91-4.79,1.55-3.63,5.19-9.24,6.86-11.73,.34-1.06,.92-2.05,1.54-2.99,.82-1.24,3.06-4.45,5.5-6.54,1.88-4.83,5.37-6.74,9.04-8.76,.72-.39,1.48-.81,2.31-1.29,7.05-4.76,12.62-6.62,19.82-6.62,1.52,0,3.16,.08,5.02,.25,1.22,.11,2.36,.67,3.19,1.56l2.22,2.37c.91,.97,1.39,2.25,1.35,3.58l-.92,28.68c0,.14-.01,.28-.03,.41-.42,3.61-.96,6.88-1.48,10.04-.62,3.75-1.21,7.3-1.47,10.82-.74,19.79-.49,48.18,.1,67.67,2.34,18.19,7.98,36.76,13.45,54.72,.63,2.06,1.25,4.12,1.87,6.18,1.26,3.95,2.48,8.01,3.65,11.94,3.96,13.21,7.71,25.71,13.74,37.11,1.16,.54,2.61,1.36,4.66,2.53,1.27,.72,3.11,1.77,3.98,2.18,1.2,.19,2.32,.82,3.11,1.81,.19,.15,.56,.42,.82,.6,1.47,1.04,3.49,2.47,4.06,4.99,.22,.95,.15,1.94-.19,2.85-.36,.98-1.01,3.7-1.24,11,0,.04,0,.09,0,.14-.62,10.49,2.45,16.75,6.33,24.66,1.35,2.75,2.75,5.6,4.09,8.82,6.64,11.98,10.56,26.82,14.36,41.18,3.92,14.83,7.97,30.16,14.89,41.45,.51,.83,.77,1.8,.73,2.77l-.41,12.62c-.04,1.3-.59,2.52-1.51,3.42-.78,1.06-2.57,4.98-3.55,7.1-1.16,2.54-1.85,4.03-2.45,4.97-.23,.36-.5,.69-.81,.98-4.49,4.2-11.46,10.74-15.98,14.99-.9,.85-2.08,1.32-3.3,1.35-.44,.14-1.22,.46-1.73,.67-1.79,.73-3.47,1.42-5.17,1.42Zm-98.39-209.84c-1.71,3.89-3.73,8.8-4.85,12.89,1.24-.22,2.7-.43,4.45-.67,1.03-.14,2.43-.34,3.65-.54-.46-2.17-1.34-5.13-1.95-7.16-.5-1.69-.94-3.18-1.3-4.53Z"/><path d="M582.61,40c1.43,0,2.93,.08,4.56,.23l2.22,2.37c-.23,7.13-.69,21.53-.92,28.68-.91,7.88-2.48,14.38-2.98,21.15-.75,19.92-.51,48.31,.1,68.34,2.64,20.76,9.33,41.44,15.52,61.94,5.71,17.94,9.93,35.88,18.72,51.71,.03-.01,.06-.02,.1-.02,1.33,0,9.77,5.56,11.1,5.56,.04,0,.07,0,.1-.02,.78,1.14,3.64,2.42,3.91,3.57-.84,2.27-1.36,6.47-1.55,12.58-.94,15.8,5.71,23.35,10.9,35.95,13.3,23.74,15.36,60,29.49,83.07-.1,3.13-.31,9.51-.41,12.62-1.72,1.47-5.5,11.04-6.73,12.99-4.49,4.2-11.46,10.74-15.99,14.99-.06,0-.12-.01-.19-.01-1.45,0-5.15,2.1-6.59,2.1-.07,0-.13,0-.18-.01-3.85-.12-11.63-.37-15.49-.5-.84,0-11.62-8.63-12.34-9.01,.26-1.13-2.83-8.14-2.57-9.27l.33-10.33-2.15-4.66c-14.87-30.4-24.78-67.87-36.93-101.68-14.15-.45-44.2-1.42-58.51-1.88-.38-.13-.76-.2-1.13-.2-7.13,0-12.79,23.6-16.41,27.77-.28,4.27-2.52,11.15-2.79,15.42,.17,1.4-3.25,4.82-3.07,6.22-6.51,3.8-13.64,13.53-20.08,17.16l-11.69,6.52c-.99-.06-3.04-.07-4.02-.13-2.55-.56-6.12-3.5-7.27-5.98-2.91-6.35,.68-16.08,1.87-22.34,5.72-10.89,11.14-29.38,16.8-40.23l.18-5.74c-2.15-.03-13.45-1.97-15.4-3.37-2.95-8.55-2.57-10.21,.63-19.5l22.5-21.1c4.38-.63,11.75-2.52,15.66-4.67,3.92-9.01,8.04-15.73,10.9-26.64,10.88-28.95,21.03-57.97,29.79-87.19,3.1-18.57,3.25-50.23,4.23-69.06,1.37-.73,4.26-10.86,4.98-11.9,.02-.92,6.67-11.66,7.29-12.4-.25-1.22,5.48-8.18,6.59-8.4,1.35-4.98,4.56-5.83,9.76-8.87,6.39-4.34,11.05-5.85,17.15-5.85m-44.22,231.81c1.22-1.43,14.52-1.94,15.62-3.52,1.23-4.07-4.82-17.66-4.46-21.96-.06,.02-.12,.03-.17,.03-1.32,0-2.25-5.31-3.08-5.31h-.02l-3.03,5.07c-2.85,6.16-8.72,18.83-8.29,25.58l3.44,.11m44.22-241.81c-8.14,0-14.68,2.14-22.47,7.38-.7,.41-1.39,.78-2.06,1.15-3.7,2.03-8.17,4.48-10.81,10.18-.5,.5-1.01,1.04-1.52,1.63-1.47,1.66-2.92,3.52-3.97,5.11-.48,.72-1.26,1.9-1.85,3.42-.83,1.27-1.92,3.02-3.25,5.24-2.19,3.64-3.45,5.85-4.13,7.61-.49,1.07-.95,2.39-1.63,4.36-.46,1.31-1.34,3.84-1.88,5.1-1.29,1.61-2.07,3.6-2.18,5.73-.27,5.2-.48,11.33-.7,17.82-.55,16.33-1.23,36.59-3.31,49.51-7.79,25.92-17.41,54.04-29.39,85.93-.12,.32-.22,.65-.31,.98-1.81,6.9-4.17,11.87-6.91,17.61-.61,1.29-1.23,2.6-1.86,3.95-2.77,.98-6.59,1.96-9.54,2.38-2.03,.29-3.92,1.2-5.42,2.6l-11.25,10.55-7.73,7.25-2.55,2.39-.71,.67c-1.43,1.34-2.34,2.81-2.85,4.28h-.01c-3.82,11.12-4.39,15.13-.62,26.02,.68,1.96,1.94,3.65,3.63,4.86,1.59,1.14,3.8,2.17,8.91,3.33-1.9,4.43-3.73,9.29-5.53,14.04-2.65,7-5.39,14.24-7.99,19.19-.46,.88-.79,1.81-.97,2.79-.21,1.1-.55,2.48-.9,3.95-1.67,6.87-3.96,16.27-.23,24.41l.04,.08c2.5,5.34,8.61,10.29,14.2,11.5,.52,.11,1.04,.18,1.57,.21,.62,.04,1.39,.05,2.2,.07,.6,.01,1.42,.03,1.73,.05,.22,.01,.43,.02,.65,.02,1.7,0,3.38-.43,4.87-1.26l11.69-6.52c4.46-2.51,8.43-6.44,12.27-10.23,2.74-2.71,5.85-5.78,7.98-7.03,2.24-1.31,3.84-3.41,4.55-5.8,.08-.12,.17-.25,.24-.35,1.3-1.93,3.19-4.74,3.25-8.39,.14-1.4,.67-3.74,1.14-5.83,.48-2.13,.97-4.31,1.3-6.41,1.27-2.27,2.46-5.2,4.06-9.23,1.22-3.06,3.52-8.85,5.29-11.78l30.13,.97,19.76,.63c3.05,8.77,6,17.82,8.88,26.63,7.76,23.75,15.78,48.31,26.17,69.56l1.11,2.41-.24,7.55c-.23,2.76,.66,5.32,1.82,8.67,.23,.66,.58,1.67,.77,2.29,.29,3,1.93,5.77,4.52,7.45,.47,.35,1.75,1.33,2.8,2.13,8.97,6.9,10.95,8.43,14.77,8.48l6.33,.2,8.74,.28c.27,.02,.53,.03,.8,.03,2.68,0,5.01-.95,7.07-1.79,.27-.11,.62-.25,.91-.37,2.09-.25,4.07-1.16,5.64-2.64,4.52-4.25,11.49-10.78,15.98-14.98,.62-.58,1.17-1.24,1.62-1.96,.77-1.22,1.48-2.75,2.77-5.56,.8-1.74,2.23-4.88,2.96-6.09,1.56-1.74,2.47-3.99,2.55-6.36l.41-12.62c.06-1.95-.45-3.88-1.47-5.55-6.54-10.67-10.32-24.97-14.32-40.12-3.84-14.56-7.82-29.61-14.68-42.08-1.36-3.25-2.76-6.09-4.11-8.84-3.7-7.54-6.37-12.99-5.83-22.16,0-.09,0-.18,.01-.27,.23-7.22,.86-9.22,.93-9.43,.68-1.82,.81-3.79,.38-5.69-.99-4.38-4.28-6.71-6.04-7.96-.09-.07-.19-.13-.28-.2-1.33-1.44-3.03-2.42-4.87-2.89-.85-.44-2.26-1.25-3.18-1.77-1.3-.74-2.42-1.38-3.44-1.92-5.39-10.61-8.93-22.39-12.65-34.8-1.18-3.92-2.39-7.98-3.68-12.02-.62-2.04-1.24-4.08-1.86-6.12-5.38-17.68-10.94-35.96-13.24-53.66-.58-19.37-.83-47.4-.1-66.99,.25-3.27,.81-6.68,1.41-10.29,.53-3.22,1.08-6.55,1.51-10.28,.03-.28,.05-.55,.06-.83l.43-13.47,.49-15.21c.08-2.65-.89-5.23-2.7-7.16l-2.22-2.37c-1.67-1.79-3.95-2.9-6.39-3.12-2.01-.18-3.8-.27-5.47-.27h0Z"/></g><g><path class="cls-2" d="M505.21,545.84c-.54,0-1.07-.09-1.59-.26-3.7-1.24-8.72-3.33-14.03-5.54-4.2-1.75-8.54-3.56-11.98-4.83-.06-.02-.13-.05-.19-.08-38.07-15.86-73.48-25.21-108.25-28.61-.16-.02-.32-.04-.48-.07-2.57-.51-5.76-.75-9.74-.75-5.94,0-12.67,.57-18.6,1.08-4.74,.4-9.22,.79-12.87,.85-5.28,.66-10.8,.97-16.64,1.3-12.82,.72-26.07,1.47-36.31,6.08-.25,.11-.52,.21-.79,.28-13.92,3.63-29.38,12.43-43.02,20.19-2.4,1.37-4.75,2.7-7.03,3.97-2.43,1.88-4.98,2.83-7.59,2.83-5.36,0-9.25-3.97-12.04-7.44-.23-.29-.44-.61-.6-.94-.71-1.46-2.8-6.49,.05-10.3,.15-.22,.19-.34,.34-1.48,.17-1.27,.39-2.95,1.17-5.29,.31-2.23,2.06-5.04,6.24-10.51,3.39-4.44,8.36-10.55,15.19-18.65,12.67-15.03,29.65-34.49,47.62-55.1,27.95-32.03,64.55-73.99,77.17-91.21-3.3,.99-6.4,2.37-10.2,4.05-2.64,1.17-5.64,2.5-9.14,3.88-15.73,6.12-32.39,13.65-48.51,20.94-6.01,2.72-11.69,5.29-17.25,7.75-12.07,7.04-35.17,16.95-47.13,21.48-1.9,.77-3.54,1.5-5.14,2.21-3.41,1.52-6.63,2.95-11.04,4.11-.3,.08-.61,.13-.93,.15-1.23,.09-3.19,.25-5.11,.41-1.76,.15-3.48,.29-4.61,.37-.12,0-.24,.01-.36,.01-1.68,0-3.26-.85-4.19-2.27-.17-.2-.99-.87-1.53-1.31-2.27-1.86-6.36-5.21-5.8-10.16-.98-7.31,1.24-15.35,6.46-23.32,4.32-6.6,10.48-12.75,16.94-16.92,9.56-7.93,16.48-9.48,25.22-11.43,2.08-.47,4.24-.95,6.63-1.56,3.51-.92,5.22-1.92,7.81-3.44,2.17-1.27,4.85-2.84,9.13-4.6,18.12-8.97,37.81-17.22,56.85-25.2,15.23-6.38,30.98-12.99,45.45-19.77,.22-.1,.44-.19,.67-.26,2.97-.9,6.45-1.87,10.13-2.9,9.11-2.54,19.43-5.42,26.26-8.43,2.45-1.22,13.33-5.82,16.58-6.25,.07,0,.15-.02,.22-.02,1.66-.14,4.21-.34,6.71-.54,2.22-.17,4.4-.34,5.88-.47,.14-.01,.28-.02,.42-.02,1.01,0,2,.31,2.84,.89,3.64,2.52,5.62,6.3,5.62,10.72,.76,3.02,1.03,6.29,.8,9.95,.99,6.18-4.53,16.25-6.41,19-3.13,5.77-7.18,11.42-11.09,16.88-3.89,5.42-7.56,10.55-10.34,15.68-.15,.28-.33,.55-.53,.79-25.01,30.48-55.06,66.53-81.57,98.34-3.08,3.7-6.13,7.35-9.13,10.95,11.29-1.94,22.91-3.9,33.31-4.4,6.71-.61,14.18-.9,22.83-.9,9.85,0,19.8,.38,29.42,.74,3.54,.13,7.04,.27,10.46,.38,.26,0,.52,.04,.78,.09,4.95,.95,12.95,2.48,20.28,3.27-.37-.5-.73-1.01-1.07-1.51-1.7-2.55-3.09-3.99-4.69-5.65-1.4-1.45-2.98-3.09-4.7-5.47-3.9-4.88-9.17-9.33-14.76-14.04-1.16-.97-2.32-1.96-3.48-2.95-2.3-1.91-4.47-3.62-6.38-5.12-7.2-5.69-11.96-9.45-13.19-15.54-1.21-5.97,1.41-12.56,7-23.39,.26-.51,.61-.96,1.02-1.35,2.37-2.22,4.97-4.87,7.73-7.69,3.17-3.23,6.44-6.57,9.41-9.27,.82-.75,1.86-1.2,2.96-1.29l19.26-1.53c.38-.06,.77-.08,1.17-.08,5.52,0,11.89,5.41,20.29,13.06,1.96,1.79,4.19,3.81,5.05,4.37,.63,.41,1.16,.95,1.56,1.6,2.1,3.44,5.89,7.43,9.56,11.28,3.6,3.78,7.32,7.69,9.89,11.52,8.63,10.38,19.32,23.92,29.65,37.01,8.05,10.21,15.66,19.85,22.33,28.05,9.3,11.02,12.9,16.89,17.88,25.02,1.49,2.43,3.03,4.95,4.92,7.92,.44,.69,.7,1.47,.76,2.28l.5,6.29c.1,1.32-.31,2.61-1.15,3.61-.27,.61-.7,2.07-.97,2.98-.85,2.88-1.53,5.18-3.07,6.76-1.01,1.17-2.3,2.83-3.66,4.59-1.86,2.4-3.79,4.89-5.63,6.94-.61,.73-1.2,1.47-1.79,2.19-5.38,6.63-10.95,13.49-21.09,14.32-1.07,.11-2.89,.24-4.68,.38-1.51,.11-2.98,.22-3.88,.31-.16,.01-.31,.02-.47,.02Z"/><path d="M421.68,272.85c2.53,1.75,3.61,4.28,3.45,7.21,.9,3.16,1.04,6.46,.77,9.73,1.21,3.16-3.54,13.39-5.63,15.99-5.95,11.06-15.66,21.9-21.57,32.81-30.67,37.37-68.36,82.47-99.29,119.61,14.17-2.18,31.74-5.88,46.12-6.55,7.22-.66,14.8-.89,22.48-.89,13.38,0,27.07,.71,39.72,1.12,8.09,1.55,20.55,3.87,29.42,3.87,.68,0,1.34-.01,1.97-.04-1.44-1.21-3.17-4.64-3.36-6.07-.02,0-.04,0-.06,0-.77,0-2.01-1.24-3.7-3.73-3.56-5.34-6.2-6.68-9.54-11.33-5.05-6.37-12-11.81-18.98-17.78-18.96-15.69-23.51-14.47-11.37-37.96,5.27-4.94,11.74-12.05,17.08-16.91,4.81-.39,14.62-1.16,19.45-1.55,.18-.03,.37-.05,.57-.05,5.8,0,18.69,14.08,22.63,16.63,4.56,7.48,14.85,15.82,19.7,23.19,15.14,18.19,36.57,46.1,52.12,65.23,11.83,14.02,14.16,19.4,22.45,32.47,.12,1.54,.38,4.74,.5,6.29-1.42,1.28-2.44,8.24-3.85,9.52-2.52,2.88-6.28,8.19-9.43,11.69-5.86,7.06-10.52,14.09-19.55,14.8-1.93,.19-6.59,.5-8.58,.68-6.48-2.17-18.1-7.46-25.87-10.32-35.6-14.83-71.63-25.25-109.69-28.97-3.14-.62-6.8-.85-10.7-.85-10.99,0-23.81,1.83-31.82,1.93-17.08,2.16-38.71,.64-54.65,7.81-17.2,4.49-36.12,16.22-51.57,24.83-1.73,1.41-3.32,2-4.8,2-3.11,0-5.74-2.58-8.15-5.57-.47-.96-1.49-3.76-.41-5.15,1.77-2.49,.69-4.04,2.46-8.83-1.98-6.65,156.26-177.62,150.38-182.99-12.11,.74-17.79,4.99-30.3,9.9-21.77,8.47-45.58,19.75-66.22,28.88-11.47,6.74-34.12,16.53-46.67,21.28-6.13,2.47-9.66,4.56-15.63,6.14-2.35,.17-7.37,.6-9.73,.78-1.55-2.38-7.41-4.93-6.45-8.7-2.36-13.77,10.13-29.16,21.29-36.24,10.87-9.1,17.48-8.97,30.12-12.19,7.6-1.99,8.7-4.62,17.76-8.32,32.59-16.15,69.79-29.73,102.36-45,10.28-3.12,27.07-7.16,37.08-11.59,2.31-1.2,12.84-5.52,15.08-5.81,3.14-.27,9.44-.74,12.59-1m0-10c-.28,0-.55,.01-.83,.03-1.47,.12-3.63,.29-5.83,.46-2.52,.2-5.09,.4-6.77,.54-.15,.01-.3,.03-.45,.05-4.25,.55-15.25,5.36-17.91,6.61-6.51,2.87-16.66,5.7-25.63,8.2-3.71,1.03-7.21,2.01-10.24,2.93-.46,.14-.91,.31-1.34,.51-14.37,6.74-30.07,13.32-45.26,19.69-19.06,7.99-38.77,16.25-56.98,25.26-4.5,1.86-7.32,3.51-9.59,4.84-2.38,1.39-3.7,2.16-6.55,2.91-2.3,.59-4.41,1.06-6.45,1.51-8.97,2.01-16.73,3.74-27.09,12.28-14.42,9.4-27.37,27.27-25.47,44.31-.55,7.27,5.11,11.9,7.66,14,.3,.25,.69,.57,.92,.77,1.89,2.49,4.84,3.95,7.96,3.95,.24,0,.48,0,.73-.03,1.14-.08,2.88-.23,4.66-.37,1.9-.16,3.83-.32,5.05-.4,.63-.04,1.24-.15,1.85-.31,4.8-1.27,8.2-2.78,11.79-4.38,1.54-.68,3.13-1.39,4.93-2.12,12.4-4.7,35.11-14.44,47.59-21.67,5.49-2.44,11.1-4.97,17.03-7.65,16.06-7.26,32.66-14.77,48.25-20.83,.63-.25,1.24-.49,1.83-.73-3.21,3.94-7.08,8.6-11.74,14.13-15.25,18.1-34.7,40.38-53.5,61.93-17.99,20.62-34.99,40.1-47.68,55.17-6.88,8.17-11.9,14.33-15.34,18.84-3.75,4.91-6.44,8.62-7.14,12.36-.83,2.61-1.09,4.57-1.26,5.82v.05c-3.65,5.87-.9,12.57,.08,14.58,.33,.67,.73,1.3,1.2,1.89,2.05,2.54,7.49,9.3,15.93,9.3,3.63,0,7.11-1.22,10.34-3.64,2.19-1.23,4.41-2.49,6.75-3.82,13.37-7.61,28.52-16.23,41.81-19.7,.54-.14,1.07-.33,1.58-.56,9.4-4.23,22.18-4.95,34.55-5.65,5.57-.31,11.32-.64,16.71-1.29,3.76-.08,8.23-.46,12.94-.86,5.83-.5,12.45-1.06,18.18-1.06,3.6,0,6.55,.22,8.77,.66,.32,.06,.64,.11,.96,.14,34.27,3.35,69.21,12.59,106.82,28.25,.13,.05,.26,.1,.39,.15,3.34,1.23,7.64,3.02,11.79,4.75,5.4,2.25,10.5,4.37,14.37,5.67,1.02,.34,2.1,.52,3.17,.52,.31,0,.62-.01,.93-.04,.83-.08,2.34-.19,3.79-.3,1.85-.14,3.59-.27,4.75-.38,12.25-1.01,19.05-9.4,24.53-16.15,.56-.69,1.12-1.38,1.7-2.08,1.95-2.18,3.99-4.81,5.8-7.15,1.28-1.65,2.48-3.21,3.4-4.27,2.32-2.44,3.22-5.5,4.18-8.73,.18-.6,.42-1.43,.61-1.97,1.27-1.86,1.88-4.13,1.7-6.42l-.16-1.95-.35-4.34c-.13-1.62-.65-3.19-1.53-4.56-1.86-2.94-3.4-5.44-4.88-7.85-5.08-8.3-8.76-14.3-18.31-25.63-6.64-8.17-14.21-17.77-22.24-27.94-10.29-13.04-20.92-26.51-29.57-36.91-2.79-4.11-6.59-8.1-10.27-11.97-3.49-3.66-7.09-7.45-8.91-10.43-.78-1.27-1.83-2.36-3.07-3.17-.72-.51-2.86-2.46-4.44-3.89-9.53-8.67-16.32-14.36-23.66-14.36-.57,0-1.14,.04-1.7,.11-2.25,.18-5.45,.43-8.71,.69-3.89,.31-7.86,.62-10.41,.83-2.21,.18-4.29,1.08-5.93,2.57-3.07,2.8-6.4,6.19-9.61,9.47-2.72,2.77-5.28,5.39-7.57,7.53-.83,.78-1.52,1.69-2.05,2.71-6.13,11.86-8.97,19.25-7.46,26.67,1.6,7.89,7.51,12.56,14.99,18.47,1.87,1.48,3.99,3.15,6.29,5.05,1.15,.99,2.31,1.96,3.45,2.92,5.36,4.52,10.42,8.79,14,13.25,.75,1.03,1.47,1.93,2.15,2.73-2.67-.47-5.11-.94-7.06-1.31-.51-.1-1.03-.16-1.55-.17-3.41-.11-6.9-.24-10.43-.38-9.67-.37-19.67-.75-29.61-.75-8.76,0-16.34,.3-23.17,.91-6.48,.32-13.54,1.2-20.53,2.27l.55-.66c26.51-31.81,56.55-67.86,81.57-98.34,.4-.49,.76-1.02,1.06-1.58,2.63-4.86,6.21-9.86,10-15.15,3.92-5.47,7.97-11.12,11.22-17.03,1.89-2.67,3.74-6.55,4.91-9.51,2.05-5.17,2.81-9.19,2.35-12.6,.18-3.7-.1-7.08-.84-10.26-.21-5.77-2.97-10.87-7.77-14.19-1.68-1.16-3.66-1.77-5.69-1.77h0Z"/></g><g><path class="cls-2" d="M130.61,454.34c-1.12,0-2.08-.22-3.07-.58-3.45-.32-5.95-3.16-7.98-5.47-.6-.69-1.23-1.4-1.65-1.77-1.22-1.09-1.84-2.7-1.65-4.33l9.64-81.72c-6.13-.87-13.5-3.18-17.6-6.24-1.46-.87-3.25-2.75-7.85-8.05-.71-.82-1.6-1.84-1.83-2.08-1.43-1.37-1.88-3.41-1.21-5.27,.41-1.13,.52-2.72,.63-4.41,.11-1.64,.25-3.51,.69-5.36,.08-.32,.19-.64,.33-.94,4.23-9.13,12.78-16.8,20.31-23.56,1.42-1.27,2.79-2.5,4.09-3.7-.21-1.3-.32-2.76-.44-4.39-.09-1.2-.24-3.12-.42-4.02-.47-.69-.77-1.48-.85-2.32-3.36-32.93-13-64.42-20.5-85.03-.35-.97-.39-2.02-.13-3.01-.24-2.11-2.55-7.75-3.57-9.25-.43-.47-.76-1.01-.99-1.6-4.48-11.74-10.73-26.18-19.31-33.72-.7-.62-1.21-1.41-1.47-2.27-1.07-1.74-5.15-6.56-6.88-8-.34-.12-.67-.28-.98-.48l-.24-.15c-3.96-2.42-5.36-4.83-5.61-6.86-.8-1.3-1.62-2.98-2.65-5.12-.54-1.13-1.36-2.83-1.67-3.28-.64-.9-.95-1.96-.92-3.04-.1-.8-.53-2.98-.76-4.19-.61-3.11-.73-3.79-.67-4.68,.04-.56,.17-1.11,.4-1.63,.42-.97,.81-1.94,1.19-2.9,1.6-3.98,3.26-8.1,6.61-12.1,2.78-4.81,8.51-8.34,13.59-11.47,2.01-1.24,3.92-2.41,5.05-3.34l.03,.04c3.39-2.8,12.4-6.64,15.38-6.64,.56,0,1.07,.07,1.52,.18,.74,.03,1.65,.05,2.54,.08,1.14,.03,2.26,.07,3,.1,.67,.03,1.32,.19,1.92,.47,.64,.3,1.32,.72,2.12,1.21,.63,.38,1.87,1.15,2.49,1.41,1.34,.14,2.57,.81,3.42,1.88l1.08,1.37c5.6,7.13,14.06,17.9,19.94,23.4,3.9,3.44,10.42,6.75,16.71,9.96,4.19,2.13,8.16,4.15,11.45,6.24,30.71,10.81,66.64,16.98,101.4,22.94,21.66,3.72,42.12,7.23,61.57,11.8,3.61,.51,7.67,1.48,11.96,2.5,4.23,1.01,8.6,2.05,12.38,2.59,3.52,.5,6.79,1.56,9.74,3.16,0,0,.53,.29,.57,.31,2.35,1.37,3.4,1.57,4.84,1.84,1.68,.31,3.77,.71,7.05,2.4,3.85,1.8,4.96,2.58,6.74,3.92,.84,.64,1.9,1.43,3.9,2.72,2.19,1.41,4.35,2.94,5.53,4.86,.94,.87,1.84,2.01,2.9,3.36,.49,.63,1.28,1.62,1.7,2.06,.86,.51,1.56,1.28,1.98,2.21,2.03,4.42,2.86,9.29,2.39,14.08-.13,1.38-.26,2.82-.38,4.28-.58,6.86-1.24,14.63-3.61,20.56-.03,.07-.06,.14-.09,.22-8.75,19.26-25.77,32.77-42.23,45.85-6.1,4.85-11.86,9.42-17.11,14.21-.32,.29-.67,.54-1.06,.74-2.97,1.55-5.97,3.12-9,4.71-24.11,12.65-51.36,26.93-77.53,36.21-2.59,3.39-8.81,4.37-13.32,5.08-.67,.11-1.56,.25-1.99,.33-.59,.24-1.23,.36-1.87,.36h-.05c-1.02,.14-3.7,.89-4.88,1.44-.65,.75-1.52,1.31-2.52,1.57-2.11,.55-4.6,1.28-7.24,2.05-4.97,1.45-10.54,3.09-15.13,3.97-1.42,.86-3.45,1.6-6.51,2.68-1.09,.39-2.72,.96-3.77,1.39-.92,2.7-1.62,6.75-2.25,10.39-.48,2.8-.98,5.7-1.6,8.19-3.09,12.29-4.94,24.01-5.99,38.02,0,.09-.02,.19-.03,.28-1.12,8.45-4.26,13.47-9.66,19.73l-1.12,1.48c-2.86,3.79-3.13,4.07-7.24,7.48-.6,.5-2.18,1.81-2.21,1.83-8.51,6.75-14.47,9.72-23.61,11.76-.07,.01-.13,.03-.2,.04-1.16,.21-1.98,.4-2.65,.56-1.04,.24-1.94,.46-3.04,.46Zm61.71-151.52c.25,0,.5,.03,.75,.08,.89-.09,2.99-.63,4.28-.96,2.1-.53,3.59-.9,4.83-1.02,9.61-3.33,23.83-6.81,31.62-8.63,6.81-1.83,15.43-4.95,23.76-7.97,5.55-2.01,10.8-3.91,15.43-5.41,5.3-3.17,11.76-6.09,18.01-8.91,6.45-2.91,13.12-5.93,18.21-9.09,.07-.04,.34-.2,.34-.2,8.66-4.83,19.45-10.84,25.74-18.64,1.47-1.83,2.45-4.07,2.86-6.54-.98-1.29-2.17-3.01-3.04-4.75l-.08-.03c-1.67-.6-3.68-1.32-5.27-2.73-21.68-10.24-47-13.62-71.5-16.9-2.39-.32-4.76-.64-7.1-.96-18-1.84-36.49-6.1-54.37-10.22-9.01-2.07-17.62-4.06-26.04-5.72,1.88,14.79,5.1,30.28,8.23,45.31,4.3,20.69,8.75,42.03,10,62.58,.25,0,.49,.02,.71,.03,1.22,.09,2.09,.43,2.63,.65Z"/><path d="M97.67,86.43c.25,0,.44,.05,.55,.14,1.54,.07,4.77,.14,6.31,.2,1.26,.59,4.63,3.07,6.16,3.07,.02,0,.04,0,.06,0,5.55,7.06,15.01,19.26,21.58,25.39,7.22,6.39,21.25,11.77,29.32,17.02,49.98,17.71,112.62,22.99,164.26,35.14,6.98,.96,16.67,3.99,24.55,5.12,2.82,.4,5.56,1.25,8.06,2.6l.43,.23c5.89,3.44,6.53,1.46,12.2,4.41,5.83,2.71,4.41,2.66,10.13,6.36,2.81,1.81,4.21,3.1,4.18,3.87,1.36,.49,4.74,6.03,6.11,6.51,1.66,3.6,2.34,7.57,1.96,11.51-.76,7.73-1.1,17.07-3.66,23.47-11.38,25.03-38.58,40.58-58.15,58.43-27.55,14.37-58.36,31.17-88.04,41.39,.39,3.4-12.37,4.05-13.36,4.74-.04,0-.08,0-.13,0-1.43,0-8.2,1.8-8.58,3.17-6.59,1.72-16.45,5.02-23.17,6.15-.97,1.37-11.27,3.98-12.23,5.35-2.32,4.97-3.11,14.45-4.69,20.81-3.4,13.51-5.12,25.51-6.13,38.85-.98,7.39-3.65,11.52-8.6,17.24-4.46,5.87-3.07,4.42-9.8,10.02-7.81,6.2-13.01,8.88-21.59,10.79-2.83,.51-3.86,.93-4.8,.93-.59,0-1.15-.17-2.11-.58-.11,.02-.21,.03-.32,.03-2.22,0-4.87-4.16-6.95-6.01l10.26-86.96c-.26,.01-.54,.02-.82,.02-5.69,0-15.57-2.55-19.66-5.85-1.29-.47-7.94-8.57-8.88-9.47,1.14-3.17,.69-6.99,1.48-10.29,4.98-10.75,17.22-19.77,25.59-27.89-1.55-1.49-.8-11.37-2.46-12.71-2.93-28.71-10.93-59.17-20.77-86.23,1.17-2.12-3.34-12.65-4.72-13.93-4.44-11.62-11.05-27.23-20.67-35.69,.12-1.15-8.32-11.24-9.91-11.24-.03,0-.05,0-.07,0-1.04-.66-4.29-2.44-3.31-4.13-1.53-1.48-4.17-8.18-5.42-9.94,.18-.67-1.49-8.04-1.44-8.66,2.1-4.87,3.51-9.71,7.35-14.12,2.97-5.69,13.33-10.25,17.67-13.79,.52-.8,9.71-5.48,12.26-5.48m94.34,221.38c.05,0,.11,0,.17,0,.18,.06,.41,.09,.69,.09,2.42,0,8.32-2.04,10.16-2.04,.04,0,.08,0,.12,0,8.89-3.15,22.88-6.65,31.87-8.74,11.74-3.14,28.43-9.93,40.06-13.64,10.46-6.39,26.23-11.78,36.77-18.34,8.84-4.93,20.39-11.34,27.32-19.94,2.34-2.91,3.71-6.48,4.08-10.19,.04-.43,.08-.81,.03-1.02-1.26-1.16-4.47-6.46-4.37-7.03-1.52-.89-5-1.52-6.22-3.07-24.78-11.94-54.42-15.05-80.94-18.68-28.82-2.93-59.05-12.22-86.74-17.14,3.78,38.24,17.63,79.81,19.17,118.34,1.29,.88,3.69,.63,5.14,.74,1.02,.08,1.48,.67,2.68,.67M97.67,76.43c-1.97,0-4.84,.4-11.17,3.4-4.34,2.05-6.51,3.45-7.81,4.64-.97,.71-2.56,1.69-4.11,2.65-5.19,3.2-11.58,7.13-15.06,12.83-3.68,4.51-5.52,9.07-7.15,13.13-.39,.97-.76,1.89-1.15,2.79-.45,1.03-.71,2.14-.79,3.26-.11,1.58,.11,2.69,.75,5.99,.2,1,.54,2.77,.67,3.6,.04,1.91,.64,3.79,1.73,5.4,.28,.48,.92,1.82,1.35,2.71,.91,1.89,1.68,3.47,2.45,4.82,.53,2.23,1.74,4.37,3.6,6.19,1.52,1.49,3.2,2.52,4.1,3.07l.19,.11c.28,.18,.57,.34,.87,.49,1.47,1.42,4.11,4.53,5.16,6.05,.58,1.41,1.48,2.7,2.66,3.74,8.75,7.7,15.43,25.18,17.94,31.75,.38,1,.92,1.92,1.58,2.74,.78,1.37,2.1,4.64,2.55,6.39-.19,1.55-.02,3.15,.53,4.65,7.4,20.35,16.92,51.4,20.22,83.83,.13,1.23,.48,2.42,1.03,3.5,.09,.77,.17,1.89,.24,2.71,.05,.69,.1,1.37,.16,2.05-.7,.64-1.43,1.29-2.16,1.95-7.9,7.08-16.85,15.11-21.51,25.18-.28,.6-.5,1.23-.65,1.87-.54,2.25-.69,4.34-.81,6.17-.07,1.03-.18,2.58-.35,3.06-1.29,3.64-.38,7.74,2.35,10.46,.27,.29,1.02,1.16,1.62,1.85,4.62,5.33,6.79,7.68,8.9,8.98,3.99,2.88,9.59,4.89,14.81,6.08l-9.1,77.09c-.38,3.25,.85,6.48,3.29,8.65,.22,.2,.82,.88,1.21,1.33,2.27,2.58,5.58,6.34,10.63,7.07,1.21,.39,2.59,.68,4.18,.68s3-.31,4.18-.59c.64-.15,1.36-.32,2.4-.51,.13-.02,.26-.05,.4-.08,9.99-2.22,16.45-5.43,25.64-12.72,.06-.05,.13-.1,.19-.15,.81-.68,1.5-1.25,2.1-1.74,4.42-3.65,4.94-4.2,8.05-8.32,.3-.4,.64-.84,1.02-1.34,5.84-6.78,9.47-12.64,10.73-22.22,.02-.19,.04-.37,.06-.56,1.05-13.9,2.8-25.02,5.85-37.16,.67-2.7,1.19-5.69,1.68-8.58,.42-2.43,.9-5.23,1.43-7.44,.48-.17,.94-.33,1.32-.47,2.62-.92,4.79-1.69,6.6-2.64,4.64-.95,9.99-2.51,14.78-3.92,2.6-.76,5.06-1.48,7.1-2.01,1.51-.4,2.88-1.13,4.02-2.12,.81-.28,1.94-.59,2.61-.73,.94-.04,1.86-.21,2.75-.51,.39-.07,.98-.16,1.44-.23,2.26-.36,5.36-.84,8.13-1.69,3.31-1.01,5.6-2.44,7.19-4.01,26.17-9.4,53.16-23.55,77.08-36.1,3.03-1.59,6.03-3.16,8.99-4.71,.76-.4,1.47-.9,2.11-1.48,5.13-4.67,10.82-9.2,16.85-13.99,16.92-13.44,34.42-27.34,43.67-47.69,.06-.14,.13-.29,.18-.43,2.64-6.62,3.33-14.78,3.94-21.98,.12-1.44,.24-2.85,.38-4.22,.55-5.68-.42-11.44-2.83-16.66-.72-1.57-1.83-2.91-3.2-3.9-.32-.39-.77-.95-1.09-1.37-.95-1.21-1.89-2.4-2.93-3.44-1.94-2.8-4.83-4.67-6.74-5.89-1.84-1.19-2.77-1.89-3.6-2.51-2.1-1.59-3.55-2.55-7.55-4.42-3.89-1.99-6.56-2.49-8.33-2.83-1.23-.23-1.64-.31-3.24-1.24-.09-.05-.19-.11-.28-.16l-.43-.23c-3.47-1.87-7.31-3.12-11.41-3.71-3.55-.51-7.81-1.52-11.93-2.5-4.32-1.03-8.41-2-12.19-2.55-19.54-4.58-40.95-8.25-61.65-11.81-34.35-5.9-69.86-11.99-100.06-22.55-3.38-2.1-7.27-4.08-11.36-6.16-5.71-2.91-12.18-6.2-15.62-9.21-5.6-5.26-14.21-16.23-19.37-22.79l-1.08-1.37c-1.46-1.85-3.51-3.11-5.76-3.6-.46-.26-1.08-.64-1.46-.87-.88-.54-1.72-1.06-2.61-1.47-1.21-.57-2.51-.89-3.85-.94-.75-.03-1.89-.06-3.05-.1-.72-.02-1.46-.04-2.1-.06-.69-.13-1.39-.2-2.11-.2h0Zm96,221.26c-1.57-19.6-5.75-39.67-9.8-59.16-2.73-13.12-5.35-25.71-7.2-37.97,6.17,1.32,12.48,2.77,19,4.27,18,4.15,36.61,8.43,54.9,10.31,2.32,.32,4.67,.63,7.03,.95,23.9,3.19,48.6,6.49,69.46,16.2,1.53,1.2,3.16,1.98,4.61,2.55,.13,.22,.26,.43,.4,.66,.23,.37,.45,.72,.66,1.05-.33,.88-.78,1.69-1.34,2.38-5.68,7.04-15.99,12.79-24.28,17.41l-.13,.07c-.14,.08-.28,.16-.42,.25-4.8,2.99-11.32,5.93-17.62,8.78-6.19,2.8-12.58,5.68-18.02,8.89-4.57,1.49-9.68,3.34-15.05,5.29-8.21,2.97-16.69,6.04-23.28,7.82-7.77,1.81-21.75,5.24-31.52,8.58-1.5,.2-3.09,.61-4.94,1.08-.69,.17-1.65,.42-2.45,.6h0Z"/></g></g></g></g></svg>